<svg width="103" height="64" viewBox="0 0 103 64" fill="none" xmlns="http://www.w3.org/2000/svg">
<path d="M37.1054 26.9901H41.5585V39H44.5983V26.9901H49.0514V24.4545H37.1054V26.9901ZM54.3088 39.2131C57.6185 39.2131 59.6782 36.9474 59.6782 33.5881C59.6782 30.2074 57.6185 27.9489 54.3088 27.9489C50.9992 27.9489 48.9395 30.2074 48.9395 33.5881C48.9395 36.9474 50.9992 39.2131 54.3088 39.2131ZM54.3231 36.8693C52.7961 36.8693 52.0148 35.4702 52.0148 33.5668C52.0148 31.6634 52.7961 30.2571 54.3231 30.2571C55.8216 30.2571 56.6029 31.6634 56.6029 33.5668C56.6029 35.4702 55.8216 36.8693 54.3231 36.8693ZM61.7023 39H64.6853V37.2528H64.8202C65.2392 38.1619 66.1554 39.1776 67.9168 39.1776C70.4026 39.1776 72.3415 37.2102 72.3415 33.5597C72.3415 29.8097 70.3174 27.9489 67.9239 27.9489C66.0986 27.9489 65.225 29.0355 64.8202 29.9233H64.7279V24.4545H61.7023V39ZM64.664 33.5455C64.664 31.5994 65.4878 30.3565 66.958 30.3565C68.4566 30.3565 69.252 31.6562 69.252 33.5455C69.252 35.4489 68.4424 36.7699 66.958 36.7699C65.502 36.7699 64.664 35.4915 64.664 33.5455ZM77.4711 39.206C79.0834 39.206 80.1274 38.5028 80.6601 37.4872H80.7453V39H83.6146V31.642C83.6146 29.0426 81.4129 27.9489 78.9839 27.9489C76.3703 27.9489 74.6515 29.1989 74.2325 31.1875L77.0308 31.4148C77.2368 30.6903 77.8831 30.1577 78.9697 30.1577C79.9995 30.1577 80.589 30.6761 80.589 31.571V31.6136C80.589 32.3168 79.8433 32.4091 77.947 32.5938C75.7879 32.7926 73.849 33.517 73.849 35.9531C73.849 38.1122 75.3902 39.206 77.4711 39.206ZM78.3376 37.1179C77.4072 37.1179 76.7396 36.6847 76.7396 35.8537C76.7396 35.0014 77.4427 34.5824 78.5081 34.4332C79.1686 34.3409 80.2481 34.1847 80.6103 33.9432V35.1009C80.6103 36.2443 79.6657 37.1179 78.3376 37.1179ZM85.9619 39H88.9875V35.5341L89.8042 34.6037L92.7801 39H96.3241L92.0699 32.8139L96.1182 28.0909H92.6451L89.1508 32.2315H88.9875V24.4545H85.9619V39Z" fill="white"/>
<path d="M99.371 39.1847C100.28 39.1847 101.068 38.4247 101.076 37.4801C101.068 36.5497 100.28 35.7898 99.371 35.7898C98.4335 35.7898 97.6593 36.5497 97.6664 37.4801C97.6593 38.4247 98.4335 39.1847 99.371 39.1847Z" fill="#326EFF"/>
<path d="M25.1718 38.8053C25.1719 39.7925 24.9049 40.7613 24.3992 41.6089C23.8936 42.4566 23.168 43.1516 22.2996 43.6201C21.4311 44.0886 20.4521 44.3132 19.4664 44.2701C18.4807 44.227 17.525 43.9178 16.7007 43.3752C16.3589 43.1217 16.0326 42.848 15.7234 42.5556C14.9358 41.8912 13.832 41.6611 12.7282 41.6611C11.7336 41.6611 10.7305 41.8193 9.99459 42.3801C9.64111 42.7901 9.22837 43.1449 8.77006 43.4327C8.76061 43.4371 8.75187 43.4429 8.74419 43.45V43.4529C8.73617 43.4587 8.72749 43.4635 8.71832 43.4672C8.71257 43.473 8.7097 43.473 8.7097 43.473C7.85279 43.9994 6.86659 44.2771 5.8611 44.2754H5.82373C4.70272 44.275 3.6089 43.93 2.69037 43.287C1.77184 42.6441 1.07299 41.7342 0.688433 40.6807C0.303874 39.6271 0.252188 38.4808 0.540376 37.3969C0.828566 36.313 1.4427 35.3439 2.29964 34.6208C2.60585 34.2012 2.81231 33.7173 2.90328 33.2058C2.90405 33.1865 2.90597 33.1673 2.90902 33.1483C2.98378 32.7356 3.01938 32.3167 3.01538 31.8972C3.01538 30.7986 2.79405 29.7029 2.13867 28.9235C1.82862 28.6001 1.53961 28.2572 1.27345 27.8968C0.737293 27.0708 0.433904 26.1153 0.395285 25.1311C0.356665 24.147 0.584244 23.1706 1.05402 22.3051C1.5238 21.4395 2.21836 20.7169 3.06442 20.2134C3.91049 19.7099 4.87668 19.4442 5.8611 19.4443H5.92147C7.36126 19.4609 8.73646 20.0449 9.74868 21.0694C10.7609 22.094 11.3285 23.4767 11.3283 24.9173V24.9432C11.3238 26.0026 11.0112 27.0379 10.4286 27.9227C10.1747 28.2642 9.90114 28.5907 9.60941 28.9005C8.94541 29.6885 8.71545 30.79 8.71545 31.8972C8.71323 32.2513 8.73727 32.6051 8.78731 32.9556C8.85952 33.5974 9.10606 34.2071 9.50018 34.7186C9.62091 34.8652 9.75026 35.0062 9.87961 35.1471C9.89685 35.1586 9.91123 35.173 9.9256 35.1845C10.6586 35.7971 11.702 35.9581 12.7282 35.9581C12.8489 35.9581 12.9725 35.9552 13.0933 35.9495C14.062 35.9035 15.0048 35.6648 15.6975 35.0781C16.0219 34.7689 16.3656 34.4807 16.7266 34.2153C17.4047 33.7748 18.1719 33.4902 18.9731 33.3818C19.7743 33.2734 20.5896 33.3439 21.3602 33.5883C21.3665 33.59 21.3724 33.5929 21.3775 33.597C22.4799 33.9508 23.4415 34.646 24.1235 35.5821C24.8055 36.5182 25.1726 37.6469 25.1718 38.8053Z" fill="white"/>
<path d="M25.1718 24.9155C25.1719 25.9854 24.8585 27.032 24.2704 27.9256C23.6822 28.8192 22.8451 29.5208 21.8627 29.9434C20.8802 30.366 19.7955 30.4912 18.7427 30.3035C17.6898 30.1158 16.7151 29.6234 15.9391 28.8872L15.9304 28.8786C15.4052 28.3789 14.9849 27.7794 14.6942 27.1152C14.4034 26.451 14.2481 25.7354 14.2373 25.0104V24.9997C14.235 24.972 14.234 24.9442 14.2345 24.9163C14.2344 23.963 14.4833 23.0263 14.9563 22.1988C15.4294 21.3713 16.1103 20.6818 16.9316 20.1986C17.753 19.7153 18.6862 19.4551 19.6389 19.4438C20.5916 19.4324 21.5308 19.6702 22.3634 20.1336C22.3836 20.148 22.3922 20.1537 22.3922 20.1537C23.347 20.6921 24.1173 21.5059 24.6026 22.489C24.6055 22.4954 24.6093 22.5012 24.6142 22.5063C24.9818 23.2561 25.1726 24.0803 25.1718 24.9155Z" fill="white"/>
<g style="mix-blend-mode:screen" opacity="0.6">
<g style="mix-blend-mode:screen" opacity="0.6">
<path d="M6.51028 19.5203H6.30332C6.16822 19.5116 5.97273 19.5289 5.72553 19.5433C5.43029 19.5736 5.13741 19.6235 4.84882 19.6928C4.47902 19.7829 4.11896 19.9091 3.77377 20.0696C3.10799 20.3766 2.51295 20.8182 2.02616 21.3666C1.53936 21.9151 1.17135 22.5584 0.945316 23.2562C0.775674 23.7703 0.688362 24.308 0.686614 24.8494C0.674993 25.39 0.745745 25.9292 0.896444 26.4485C1.04152 26.9495 1.26359 27.4249 1.5547 27.8577C1.83927 28.269 2.23595 28.6227 2.52052 29.0771C2.77415 29.4921 2.94588 29.9519 3.02642 30.4317C3.09884 30.8243 3.1335 31.2231 3.1299 31.6223C3.13182 31.9275 3.10971 32.2323 3.06379 32.534C3.03675 32.7271 2.99739 32.9183 2.94594 33.1063C2.91719 33.2012 2.89708 33.2616 2.88845 33.2904C2.89133 33.276 2.89707 33.2472 2.90282 33.2041C2.90359 33.1848 2.90551 33.1656 2.90856 33.1466C2.98332 32.7339 3.01894 32.315 3.01493 31.8955C3.01493 30.7969 2.79359 29.7012 2.13821 28.9218C1.82816 28.5984 1.53917 28.2555 1.27301 27.8951C0.736851 27.069 0.433456 26.1136 0.394836 25.1294C0.356216 24.1452 0.583804 23.1689 1.05358 22.3033C1.52336 21.4378 2.21791 20.7152 3.06397 20.2117C3.91002 19.7082 4.87624 19.4425 5.86063 19.4426H5.92099C6.05011 19.4511 6.17869 19.4665 6.30617 19.4886C6.43839 19.5088 6.51028 19.5203 6.51028 19.5203Z" fill="white"/>
</g>
</g>
<g style="mix-blend-mode:multiply" opacity="0.25">
<g style="mix-blend-mode:multiply" opacity="0.25">
<path d="M8.78726 32.9664L8.75851 32.8715C8.73983 32.8097 8.71108 32.7191 8.68435 32.6003C8.60605 32.2725 8.55937 31.9379 8.54494 31.6012C8.51927 31.1165 8.56578 30.6307 8.68291 30.1597C8.74854 29.886 8.84495 29.6206 8.97036 29.3686C9.10741 29.1134 9.26956 28.8725 9.45442 28.6496C9.63637 28.4313 9.83586 28.2337 9.98763 28.0436C10.1451 27.8507 10.2905 27.6482 10.4231 27.4374C10.5461 27.2365 10.6582 27.0291 10.7588 26.8161C10.8503 26.6148 10.9313 26.4135 10.998 26.2269C11.104 25.9201 11.1894 25.6066 11.2538 25.2884C11.3013 25.0549 11.3228 24.9177 11.3228 24.9177C11.3448 25.0429 11.3599 25.1691 11.3679 25.2959C11.3913 25.634 11.3746 25.9736 11.3182 26.3077C11.2403 26.7881 11.087 27.2532 10.8641 27.6858C10.7388 27.9327 10.5913 28.1676 10.4234 28.3876C10.2446 28.6205 10.0598 28.8115 9.89737 29.016C9.73094 29.2063 9.584 29.4129 9.45873 29.6326C9.3422 29.8474 9.24447 30.0719 9.16669 30.3035C9.02561 30.7299 8.92721 31.1692 8.87292 31.615C8.82319 32.0124 8.80508 32.3512 8.79674 32.5899L8.78726 32.9664Z" fill="white"/>
</g>
</g>
<g style="mix-blend-mode:screen" opacity="0.6">
<g style="mix-blend-mode:screen" opacity="0.6">
<path d="M21.3774 33.5954C21.3458 33.5925 21.2078 33.5695 20.9951 33.5436C20.8715 33.5292 20.7249 33.5177 20.5553 33.5091C20.3677 33.498 20.1796 33.497 19.9919 33.5062C19.8884 33.512 19.762 33.5149 19.67 33.5235C19.555 33.535 19.44 33.5436 19.3279 33.558C19.0862 33.5927 18.8463 33.6398 18.6093 33.6989C18.3584 33.7622 18.1117 33.841 17.8706 33.9347C17.6231 34.0305 17.3838 34.1459 17.1548 34.2799C16.9253 34.4097 16.7079 34.5599 16.5052 34.7285C16.304 34.9011 16.0942 35.0823 15.8757 35.2548C15.6614 35.4251 15.4256 35.5663 15.1743 35.6747C14.9542 35.7697 14.725 35.842 14.4902 35.8904C14.296 35.9315 14.0991 35.9584 13.9009 35.9709C13.7488 35.9819 13.5962 35.9828 13.4439 35.9738C13.1938 35.9652 13.053 35.9565 13.053 35.9565L13.0932 35.9479C14.0619 35.9019 15.0047 35.6632 15.6975 35.0765C16.0218 34.7673 16.3655 34.4791 16.7265 34.2137C17.4047 33.7733 18.1719 33.4886 18.973 33.3802C19.7742 33.2718 20.5895 33.3423 21.3602 33.5868C21.3665 33.5884 21.3723 33.5914 21.3774 33.5954Z" fill="white"/>
</g>
</g>
<g style="mix-blend-mode:multiply" opacity="0.25">
<g style="mix-blend-mode:multiply" opacity="0.25">
<path d="M8.70764 43.472C8.70764 43.472 8.79071 43.4168 8.9376 43.3035C9.14916 43.1393 9.34985 42.9614 9.53836 42.7711C9.66369 42.6503 9.77665 42.5034 9.93676 42.3492C10.1098 42.1897 10.3041 42.0551 10.5142 41.9492C11.0199 41.7094 11.5632 41.5592 12.1202 41.5054C12.7783 41.4241 13.4451 41.4478 14.0958 41.5756C14.2752 41.6105 14.4525 41.6552 14.627 41.7093C14.807 41.766 14.9817 41.8381 15.1493 41.9247C15.4856 42.1052 15.8034 42.3184 16.0979 42.5612C16.3942 42.7936 16.682 43.0308 16.9872 43.2273C17.1381 43.3261 17.2962 43.4135 17.4601 43.4887C17.6272 43.5682 17.7986 43.6383 17.9735 43.6986C18.6852 43.9456 19.4419 44.0356 20.1917 43.9626L20.332 43.9483L20.4702 43.9278C20.5683 43.9129 20.6714 43.8991 20.7554 43.8784C20.9374 43.8411 21.1174 43.7944 21.2946 43.7383C21.6511 43.6244 21.9939 43.4713 22.3168 43.2819C22.9326 42.9295 23.4713 42.4567 23.9007 41.8917C24.3301 41.3266 24.6414 40.6809 24.8161 39.9929C24.9662 39.3903 25.0084 38.7659 24.9406 38.1486C24.8836 37.621 24.7523 37.1042 24.5505 36.6134C24.3956 36.2304 24.1978 35.8662 23.961 35.5277C23.8667 35.3839 23.7681 35.2643 23.6847 35.1585C23.6165 35.0669 23.5425 34.9799 23.4631 34.8979L23.2685 34.6882L23.485 34.8757C23.5738 34.9491 23.6576 35.0282 23.7359 35.1127C23.8486 35.2211 23.9535 35.3372 24.0501 35.4601C24.3212 35.7874 24.5544 36.1444 24.7451 36.5242C25.3066 37.6225 25.4788 38.8789 25.2338 40.0879C25.0816 40.8232 24.781 41.5197 24.3505 42.1347C23.6448 43.1396 22.6343 43.8904 21.4688 44.2758C21.2684 44.3414 21.0646 44.396 20.8583 44.4395C20.7505 44.4656 20.6551 44.4783 20.5568 44.4941L20.4001 44.5186L20.244 44.535C19.4125 44.6089 18.5748 44.5022 17.7884 44.2221C17.3999 44.0881 17.031 43.9032 16.6912 43.6722C16.3563 43.4438 16.0651 43.1896 15.7805 42.9549C15.5144 42.7255 15.2286 42.52 14.9265 42.3406C14.7824 42.2577 14.631 42.1879 14.4744 42.1321C14.3199 42.078 14.1629 42.0316 14.0038 41.9932C13.3969 41.8498 12.7723 41.7958 12.1498 41.833C11.6217 41.855 11.1002 41.9594 10.6042 42.1422C10.402 42.2244 10.2122 42.3343 10.0402 42.4689C9.88675 42.5934 9.74992 42.7421 9.61454 42.8525C9.40838 43.0294 9.18794 43.1887 8.95542 43.3291C8.79617 43.4263 8.70764 43.472 8.70764 43.472Z" fill="white"/>
</g>
</g>
<g style="mix-blend-mode:multiply" opacity="0.25">
<g style="mix-blend-mode:multiply" opacity="0.25">
<path d="M24.5603 22.4221L24.6508 22.5702C24.7351 22.7116 24.8118 22.8573 24.8808 23.0068C25.1305 23.5482 25.283 24.1294 25.3312 24.7238L25.3407 24.8647L25.343 24.9003C25.3437 24.9099 25.3437 24.9195 25.343 24.9291V24.9464V25.0165C25.3413 25.1105 25.3395 25.2063 25.3378 25.3041C25.3361 25.4019 25.3336 25.5008 25.3303 25.6009C25.3231 25.7024 25.2993 25.8109 25.284 25.9173C25.2199 26.3688 25.0953 26.8096 24.9135 27.2279C24.8218 27.4496 24.7123 27.6636 24.5861 27.8678C24.4656 28.0826 24.3248 28.2854 24.1656 28.4734L23.9279 28.7625C23.8431 28.8542 23.7491 28.9379 23.6597 29.0262C23.5703 29.1145 23.4803 29.2034 23.3843 29.285L23.0833 29.5151C22.6775 29.8117 22.235 30.0544 21.7668 30.2373C21.5377 30.3265 21.3029 30.4007 21.064 30.4593C20.8286 30.5197 20.5874 30.5415 20.3558 30.5824C20.1215 30.6065 19.8881 30.6057 19.6621 30.6111C19.4359 30.6051 19.2157 30.5689 19.001 30.5493C18.6027 30.4892 18.2133 30.3802 17.8417 30.2246C17.525 30.1086 17.2234 29.9549 16.9435 29.7668C16.7275 29.6259 16.5234 29.4677 16.3332 29.2937C16.2114 29.1833 16.0962 29.0659 15.9883 28.9419L15.8733 28.8102C16.481 29.319 17.1886 29.6946 17.9504 29.9129C18.1221 29.9714 18.2987 30.0143 18.4781 30.0411C18.6675 30.0779 18.8586 30.1052 19.0507 30.1228C19.2491 30.126 19.4532 30.1464 19.659 30.1372C19.8654 30.113 20.0775 30.1122 20.2896 30.0797C20.4995 30.0319 20.7168 30.0049 20.9281 29.9405L21.2443 29.8361C21.3529 29.8072 21.4587 29.7687 21.5604 29.721C21.9818 29.5493 22.3792 29.324 22.743 29.0506L23.019 28.8473C23.1052 28.7748 23.1863 28.6929 23.2705 28.6172C23.3547 28.5416 23.4395 28.4645 23.5171 28.3826L23.7353 28.1237C23.8807 27.9554 24.0133 27.7764 24.132 27.5882C24.2545 27.408 24.3621 27.218 24.4536 27.0202C24.5481 26.8313 24.6287 26.6358 24.6948 26.4352C24.7666 26.2482 24.8217 26.0553 24.8598 25.8586C24.8808 25.7628 24.9101 25.6731 24.9239 25.5753C24.9377 25.4775 24.9449 25.3769 24.9549 25.2803C24.965 25.1836 24.9768 25.0884 24.9874 24.995L24.9955 24.9254L24.9975 24.9078C24.9975 24.9251 24.9975 24.9023 24.9975 24.9023V24.869L25.0015 24.7364C25.0079 24.1654 24.9309 23.5964 24.773 23.0476C24.714 22.8353 24.643 22.6264 24.5603 22.4221Z" fill="white"/>
</g>
</g>
<g style="mix-blend-mode:screen" opacity="0.6">
<g style="mix-blend-mode:screen" opacity="0.6">
<path d="M22.3916 20.1529C22.3916 20.1529 22.2163 20.0925 21.9144 19.9774C21.7707 19.917 21.5753 19.8797 21.3654 19.8193C21.2591 19.7963 21.1441 19.7732 21.0234 19.7502C20.9026 19.733 20.7733 19.7129 20.6411 19.6956C20.5088 19.687 20.368 19.6755 20.2243 19.6668C20.0805 19.6697 19.9339 19.6582 19.7816 19.6668C19.4638 19.6806 19.1477 19.7191 18.8359 19.7819C18.6749 19.8078 18.514 19.8595 18.3501 19.8998C18.192 19.9573 18.0253 20.0004 17.8672 20.0695C17.5432 20.1939 17.2322 20.35 16.9388 20.5354C16.7979 20.6332 16.6398 20.7223 16.5133 20.8287L16.3121 20.9869L16.1109 21.1681C15.4168 21.8083 14.899 22.6165 14.6076 23.5149C14.4698 23.9295 14.3763 24.3575 14.3287 24.7918C14.3115 24.95 14.2971 25.0794 14.2943 25.1657C14.2914 25.252 14.2856 25.298 14.2856 25.298C14.2856 25.298 14.277 25.252 14.2626 25.1657C14.254 25.1254 14.2483 25.0708 14.2368 25.0104V24.9997C14.2344 24.972 14.2334 24.9442 14.2339 24.9163C14.2338 23.963 14.4827 23.0263 14.9557 22.1988C15.4288 21.3713 16.1097 20.6818 16.931 20.1986C17.7524 19.7153 18.6856 19.4551 19.6383 19.4438C20.5911 19.4324 21.5302 19.6702 22.3629 20.1336C22.3836 20.1471 22.3916 20.1529 22.3916 20.1529Z" fill="white"/>
</g>
</g>
</svg>
