<svg width="181" height="52" viewBox="0 0 181 52" fill="none" xmlns="http://www.w3.org/2000/svg">
<path d="M9.94249 14.9588L13.512 16.7445C14.1691 17.0317 14.8841 17.1611 15.6 17.1223C16.3158 17.0836 17.0127 16.8778 17.6349 16.5213L21.0082 14.3249C21.5886 13.9034 22.0611 13.3503 22.3868 12.7109C22.7125 12.0715 22.8823 11.364 22.8821 10.6463L22.6681 6.61953C22.5899 5.90766 22.3457 5.22399 21.9551 4.62381C21.5644 4.02363 21.0384 3.52363 20.4191 3.16417L16.8496 1.33381C16.1939 1.04327 15.4789 0.91131 14.7626 0.948542C14.0464 0.985774 13.3489 1.19113 12.7267 1.5481L9.3536 3.74453C8.77417 4.16712 8.30245 4.72042 7.97691 5.35962C7.65128 5.99873 7.48083 6.70578 7.47949 7.4231L7.69366 11.4499C7.763 12.1715 8.00314 12.8661 8.39419 13.4763C8.78524 14.0866 9.31603 14.5948 9.94249 14.9588Z" fill="#9A9A9A"/>
<path d="M31.4746 20.1732L27.905 18.3428C27.2496 18.0557 26.536 17.9265 25.8216 17.9652C25.1071 18.004 24.4117 18.2098 23.7911 18.566L20.3821 20.7625C19.8049 21.187 19.3347 21.7408 19.0093 22.3795C18.6839 23.0182 18.5122 23.7242 18.5081 24.441L18.7224 28.4678C18.8005 29.1798 19.0446 29.8635 19.4352 30.4636C19.8259 31.0638 20.352 31.5638 20.9711 31.9232L24.5407 33.7089C25.195 33.9994 25.9085 34.1314 26.6234 34.0942C27.3382 34.057 28.0341 33.8515 28.6546 33.4946L32.0368 31.2982C32.6144 30.8718 33.0845 30.3164 33.4097 29.6762C33.7351 29.0361 33.9067 28.3288 33.9108 27.6107L33.6967 23.5928C33.6148 22.89 33.3716 22.2157 32.9862 21.6225C32.6007 21.0292 32.0834 20.5333 31.4746 20.1732Z" fill="#9A9A9A"/>
<path d="M42.4869 37.1558L38.9173 35.37C38.2615 35.0794 37.5466 34.9474 36.8304 34.9847C36.1141 35.0219 35.4166 35.2273 34.7945 35.5843L31.4213 37.7808C30.8429 38.2042 30.3719 38.7578 30.0465 39.3968C29.7209 40.0357 29.5499 40.7422 29.5472 41.4594L29.7614 45.4862C29.8468 46.1866 30.0926 46.858 30.4796 47.4479C30.8664 48.0379 31.3842 48.5307 31.9924 48.888L35.562 50.6737C36.219 50.9608 36.934 51.0901 37.6498 51.0514C38.3657 51.0126 39.0626 50.8068 39.6849 50.4505L43.0669 48.2541C43.6448 47.8305 44.1147 47.2767 44.4387 46.6376C44.7628 45.9985 44.9318 45.2921 44.9321 44.5755L44.7446 40.6201C44.6676 39.9055 44.423 39.2193 44.0306 38.6172C43.6383 38.0152 43.1093 37.5144 42.4869 37.1558Z" fill="#9A9A9A"/>
<path d="M16.1881 27.1554L16.0185 24.0215C16.0226 23.3046 16.1942 22.5986 16.5197 21.9599C16.8451 21.3212 17.3152 20.7674 17.8926 20.3429L24.4695 16.0661C25.0901 15.7098 25.7855 15.504 26.5 15.4653C27.2144 15.4265 27.928 15.5559 28.5834 15.8429L31.3855 17.2714C32.0414 17.562 32.7563 17.694 33.4725 17.6568C34.1888 17.6196 34.8862 17.4141 35.5084 17.0572L38.8817 14.8518C39.4605 14.4288 39.9318 13.8754 40.2574 13.2363C40.5829 12.5972 40.7536 11.8905 40.7557 11.1732L40.5415 7.15536C40.4648 6.44188 40.2211 5.75643 39.8304 5.15465C39.4398 4.55277 38.913 4.05143 38.2927 3.69107L34.7231 1.86071C34.0661 1.57366 33.3511 1.44428 32.6352 1.48303C31.9193 1.52178 31.2224 1.72759 30.6002 2.08393L27.1556 4.24464C26.5778 4.66822 26.1078 5.22197 25.7838 5.86107C25.4598 6.50018 25.2908 7.20661 25.2905 7.92322L25.4511 11.0572C25.4509 11.7739 25.2817 12.4803 24.9577 13.1194C24.6337 13.7585 24.1638 14.3122 23.586 14.7357L17.0091 19.0125C16.3869 19.3695 15.6895 19.5749 14.9733 19.6122C14.2569 19.6494 13.542 19.5173 12.8862 19.2268L10.093 17.8072C9.43721 17.5166 8.72232 17.3847 8.00599 17.4219C7.28976 17.4591 6.59235 17.6645 5.97017 18.0214L2.59693 20.2179C2.01749 20.6405 1.54587 21.1938 1.22023 21.833C0.894597 22.4722 0.724239 23.1791 0.7229 23.8965L0.937073 27.9232C1.0131 28.637 1.25646 29.3227 1.64715 29.9247C2.03793 30.5266 2.56507 31.0278 3.18591 31.3875L6.75548 33.1733C7.41246 33.4604 8.12745 33.5898 8.84332 33.551C9.5592 33.5123 10.2562 33.3065 10.8783 32.95L14.2516 30.7536C14.8313 30.3453 15.3079 29.8076 15.6441 29.1831C15.9802 28.5586 16.1664 27.8644 16.1881 27.1554Z" fill="#9A9A9A"/>
<path d="M51.518 24.1376C51.4385 23.4248 51.1938 22.7405 50.8034 22.1391C50.413 21.5377 49.8876 21.0357 49.2692 20.6733L45.6996 18.8876C45.0425 18.6011 44.3275 18.4721 43.6118 18.5109C42.896 18.5496 42.1991 18.7551 41.5768 19.1108L38.2034 21.3072C37.6251 21.7308 37.1543 22.2843 36.8287 22.9232C36.5033 23.5621 36.3322 24.2686 36.3295 24.9858L36.4991 28.1286C36.4963 28.8457 36.3253 29.5522 35.9998 30.1911C35.6743 30.8301 35.2034 31.3836 34.6249 31.8072L28.0569 36.0751C27.4348 36.4314 26.7379 36.6372 26.022 36.676C25.3061 36.7147 24.5912 36.5853 23.9341 36.2983L21.132 34.8697C20.4765 34.5827 19.763 34.4533 19.0485 34.492C18.3341 34.5309 17.6387 34.7366 17.018 35.0929L13.6091 37.2804C13.0318 37.705 12.5617 38.2586 12.2362 38.8974C11.9109 39.5361 11.7393 40.242 11.7352 40.959L11.9493 44.9857C12.0274 45.6977 12.2716 46.3813 12.6622 46.9815C13.0529 47.5817 13.5789 48.0817 14.1982 48.4411L17.7677 50.2715C18.422 50.562 19.1354 50.6939 19.8502 50.6567C20.5651 50.6194 21.261 50.414 21.8817 50.0571L25.2638 47.8607C25.8406 47.4357 26.3104 46.8819 26.6357 46.2433C26.9611 45.6046 27.133 44.8989 27.1379 44.1822L26.9683 41.0393C26.9703 40.322 27.141 39.6153 27.4665 38.9763C27.7921 38.3372 28.2634 37.7838 28.8422 37.3607L35.4102 33.084C36.0324 32.727 36.7299 32.5216 37.4462 32.4844C38.1624 32.4471 38.8773 32.5791 39.5331 32.8696L42.3263 34.2894C42.9821 34.5799 43.6971 34.7119 44.4133 34.6746C45.1296 34.6374 45.827 34.432 46.4491 34.0751L49.8314 31.8786C50.4086 31.4545 50.8782 30.9007 51.2021 30.2618C51.5261 29.6228 51.6954 28.9165 51.6964 28.2001L51.518 24.1376Z" fill="#9A9A9A"/>
<path d="M80.4663 29.1655C80.4663 30.2137 80.3011 31.1707 79.9707 32.0366C79.6403 32.9025 79.1561 33.6431 78.5181 34.2583C77.88 34.8735 77.0882 35.3521 76.1426 35.6938C75.1969 36.0243 74.0975 36.1895 72.8442 36.1895C71.9214 36.1895 71.0327 36.0812 70.1782 35.8647C69.3237 35.6483 68.5775 35.3748 67.9395 35.0444V30.9771C68.2243 31.2163 68.5547 31.4385 68.9307 31.6436C69.318 31.8486 69.7282 32.0309 70.1611 32.1904C70.5941 32.3385 71.0384 32.4582 71.4941 32.5493C71.9499 32.6291 72.3999 32.6689 72.8442 32.6689C73.2202 32.6689 73.6076 32.6006 74.0063 32.4639C74.4165 32.3271 74.7811 32.0993 75.1001 31.7803C75.4191 31.4613 75.6812 31.0454 75.8862 30.5327C76.0913 30.0086 76.1938 29.3649 76.1938 28.6016V16.9805H68.1104V13.5112H80.4663V29.1655ZM96.0181 17.0146V35.8477H91.7114V17.0146H85.5933V13.5112H102.136V17.0146H96.0181ZM120.986 25.833C120.986 26.1178 120.975 26.4881 120.952 26.9438C120.941 27.3996 120.918 27.8268 120.884 28.2256H109.468C109.468 28.9889 109.582 29.6611 109.81 30.2422C110.049 30.8232 110.379 31.3132 110.801 31.7119C111.234 32.0993 111.746 32.3955 112.339 32.6006C112.943 32.8057 113.609 32.9082 114.338 32.9082C115.181 32.9082 116.082 32.8455 117.039 32.7202C118.007 32.5835 119.01 32.367 120.046 32.0708V35.3862C119.602 35.5116 119.118 35.6255 118.594 35.728C118.07 35.8306 117.534 35.9217 116.987 36.0015C116.44 36.0812 115.888 36.1382 115.33 36.1724C114.771 36.2179 114.23 36.2407 113.706 36.2407C112.384 36.2407 111.2 36.0527 110.151 35.6768C109.103 35.3008 108.215 34.7482 107.485 34.019C106.756 33.2785 106.198 32.367 105.811 31.2847C105.423 30.2023 105.229 28.9491 105.229 27.5249C105.229 26.1121 105.423 24.8304 105.811 23.6797C106.198 22.5176 106.745 21.5264 107.451 20.7061C108.158 19.8743 109.012 19.2363 110.015 18.792C111.029 18.3363 112.157 18.1084 113.398 18.1084C114.629 18.1084 115.717 18.3021 116.663 18.6895C117.608 19.0654 118.4 19.5952 119.038 20.2788C119.676 20.9624 120.16 21.777 120.491 22.7227C120.821 23.6683 120.986 24.7051 120.986 25.833ZM116.748 25.2349C116.759 24.5513 116.674 23.9588 116.492 23.4575C116.309 22.9448 116.059 22.5233 115.74 22.1929C115.432 21.8625 115.068 21.6175 114.646 21.458C114.236 21.2985 113.792 21.2188 113.313 21.2188C112.265 21.2188 111.405 21.5719 110.732 22.2783C110.06 22.9733 109.661 23.9588 109.536 25.2349H116.748ZM139.153 35.1812C138.333 35.5116 137.484 35.7565 136.606 35.916C135.729 36.0755 134.812 36.1553 133.855 36.1553C132.476 36.1553 131.24 35.9673 130.146 35.5913C129.053 35.2153 128.124 34.6571 127.361 33.9165C126.597 33.1759 126.011 32.2588 125.601 31.165C125.202 30.0713 125.002 28.8066 125.002 27.3711C125.002 25.9811 125.219 24.7222 125.652 23.5942C126.096 22.4663 126.717 21.5036 127.515 20.7061C128.312 19.9085 129.269 19.2933 130.386 18.8604C131.514 18.4274 132.767 18.2109 134.146 18.2109C135.273 18.2109 136.219 18.2736 136.982 18.3989C137.757 18.5129 138.452 18.661 139.067 18.8433V22.8936C138.361 22.5404 137.592 22.2669 136.76 22.0732C135.94 21.8796 135.16 21.7827 134.419 21.7827C133.644 21.7827 132.949 21.9137 132.334 22.1758C131.719 22.4378 131.2 22.8024 130.779 23.2695C130.357 23.7367 130.033 24.3063 129.805 24.9785C129.588 25.6393 129.48 26.3685 129.48 27.166C129.48 27.9977 129.6 28.744 129.839 29.4048C130.078 30.0656 130.414 30.6296 130.847 31.0967C131.292 31.5524 131.821 31.9056 132.437 32.1562C133.052 32.3955 133.735 32.5151 134.487 32.5151C134.852 32.5151 135.234 32.4924 135.632 32.4468C136.042 32.3898 136.447 32.3158 136.846 32.2246C137.256 32.1221 137.655 32.0081 138.042 31.8828C138.441 31.7575 138.811 31.6208 139.153 31.4727V35.1812ZM154.705 35.8477V24.5342C154.705 22.6315 153.998 21.6802 152.585 21.6802C151.879 21.6802 151.201 21.965 150.552 22.5347C149.914 23.1043 149.236 23.8791 148.518 24.8589V35.8477H144.348V11.6997H148.518V17.647L148.313 20.7915C148.666 20.37 149.025 19.994 149.39 19.6636C149.754 19.3218 150.147 19.0369 150.569 18.8091C150.99 18.5812 151.446 18.4103 151.936 18.2964C152.426 18.1711 152.967 18.1084 153.56 18.1084C154.448 18.1084 155.223 18.2565 155.884 18.5527C156.545 18.8376 157.097 19.2477 157.542 19.7832C157.986 20.3073 158.316 20.9453 158.533 21.6973C158.761 22.4378 158.875 23.2695 158.875 24.1924V35.8477H154.705ZM170.735 29.5415C171.213 29.5415 171.658 29.6326 172.068 29.8149C172.478 29.9858 172.831 30.2251 173.127 30.5327C173.435 30.8289 173.674 31.1821 173.845 31.5923C174.016 32.0024 174.102 32.4411 174.102 32.9082C174.102 33.3639 174.016 33.7969 173.845 34.207C173.674 34.6058 173.435 34.959 173.127 35.2666C172.831 35.5628 172.478 35.7964 172.068 35.9673C171.658 36.1496 171.213 36.2407 170.735 36.2407C170.279 36.2407 169.852 36.1496 169.453 35.9673C169.054 35.7964 168.707 35.5628 168.411 35.2666C168.114 34.959 167.881 34.6058 167.71 34.207C167.539 33.7969 167.454 33.3639 167.454 32.9082C167.454 32.4411 167.539 32.0024 167.71 31.5923C167.881 31.1821 168.114 30.8289 168.411 30.5327C168.707 30.2251 169.054 29.9858 169.453 29.8149C169.852 29.6326 170.279 29.5415 170.735 29.5415Z" fill="#9A9A9A"/>
</svg>
