<svg width="217" height="44" viewBox="0 0 217 44" fill="none" xmlns="http://www.w3.org/2000/svg">
<path d="M8.45177 14.9353L13.8546 11.8178L10.8388 6.59439H39.2014L25.0247 31.1705L22.0089 25.9381L16.6062 29.0648L25.0247 43.6501L50.0071 0.350098H0.0332031L8.45177 14.9353Z" fill="#9A9A9A"/>
<path d="M70.1927 15.2356L65.5101 25.8826H74.9949L70.1927 15.2356ZM72.0042 9.64722H72.6365L82.241 30.531C82.5487 31.1804 82.8904 31.7159 83.2664 32.1375C83.6538 32.559 84.0867 32.8666 84.5653 33.0603C85.0438 33.2426 85.6077 33.3337 86.2571 33.3337H86.8895V34.0002H73.0296V33.3337H74.8411C75.7412 33.3337 76.3963 33.2141 76.8065 32.9749C77.228 32.7242 77.4388 32.3425 77.4388 31.8298C77.4388 31.5108 77.3533 31.1235 77.1824 30.6677C77.0229 30.212 76.664 29.386 76.1058 28.1897C76.0716 28.1213 76.0203 28.0074 75.952 27.8479C75.8836 27.6884 75.8096 27.5346 75.7298 27.3865L75.3367 26.5149H65.2196L64.4505 28.2922C64.1999 28.8961 64.0745 29.5056 64.0745 30.1208C64.0745 30.6449 64.2169 31.1633 64.5018 31.676C64.798 32.1887 65.1797 32.5761 65.6468 32.8381C65.9544 33.0204 66.2279 33.1458 66.4671 33.2141C66.7178 33.2711 67.071 33.311 67.5267 33.3337V34.0002H57.8026V33.3337C58.5089 33.254 59.0672 33.1287 59.4774 32.9578C59.8989 32.7869 60.366 32.502 60.8787 32.1033C62.0864 31.169 63.2656 29.4088 64.4163 26.8225L72.0042 9.64722ZM98.8524 10.7239V21.1829H104.031C108.28 21.1829 110.405 19.3315 110.405 15.6287C110.405 13.9653 109.949 12.7348 109.038 11.9373C108.138 11.1283 106.742 10.7239 104.851 10.7239H98.8524ZM98.8524 21.8494V33.4021H104.219C106.486 33.4021 108.223 32.9008 109.431 31.8982C110.639 30.8842 111.243 29.4486 111.243 27.5916C111.243 26.0079 110.753 24.7489 109.773 23.8147C109.032 23.0741 108.126 22.5614 107.055 22.2766C105.985 21.9918 104.418 21.8494 102.356 21.8494H98.8524ZM88.7694 10.1257H106.269C107.625 10.1257 108.935 10.2625 110.2 10.5359C111.465 10.7979 112.456 11.1511 113.174 11.5955C114.062 12.1195 114.752 12.7576 115.242 13.5095C115.731 14.2501 115.976 15.0476 115.976 15.9021C115.976 17.2921 115.207 18.4941 113.669 19.5081C113.054 19.9182 112.393 20.26 111.687 20.5334C110.98 20.8069 109.984 21.1202 108.696 21.4734V21.5417C110.337 21.8494 111.687 22.2196 112.746 22.6526C115.64 23.9286 117.087 25.6832 117.087 27.9163C117.087 29.1467 116.649 30.2234 115.771 31.1462C114.905 32.0577 113.664 32.7641 112.046 33.2654C110.428 33.7553 108.52 34.0002 106.321 34.0002H88.7694V33.3337H89.47C90.9398 33.3337 92.0278 32.9806 92.7342 32.2742C93.452 31.5564 93.8109 30.4626 93.8109 28.9929V15.0989C93.8109 13.6178 93.452 12.5183 92.7342 11.8005C92.0278 11.0828 90.9398 10.7239 89.47 10.7239H88.7694V10.1257ZM119.48 10.1257H144.875V19.3713H144.363C143.895 17.7535 143.474 16.5458 143.098 15.7483C142.733 14.9394 142.255 14.176 141.662 13.4583C140.945 12.6038 140.164 11.9942 139.321 11.6296C137.92 11.0486 136.216 10.7581 134.211 10.7581H129.512V22.1057H130.776C132.656 22.1057 134.149 21.2968 135.254 19.679C135.823 18.8472 136.245 17.856 136.518 16.7053C136.655 16.2154 136.78 15.4919 136.894 14.5349H137.493V30.1892H136.894C136.758 29.3461 136.592 28.5543 136.399 27.8137C136.216 27.0618 136.006 26.4522 135.766 25.9851C135.539 25.518 135.242 25.0509 134.878 24.5837C133.852 23.3191 132.394 22.6868 130.503 22.6868H129.512V33.3679H133.442C134.604 33.3679 135.647 33.2882 136.57 33.1287C137.504 32.9578 138.341 32.7014 139.082 32.3596C139.822 32.0064 140.517 31.5507 141.167 30.9924C142.283 30.0468 143.149 28.8676 143.764 27.4548C144.118 26.6459 144.488 25.5522 144.875 24.1736H145.508V34.0002H119.514L119.48 33.3679H120.129C123.023 33.3679 124.47 31.9096 124.47 28.9929V15.0989C124.47 13.6178 124.117 12.524 123.41 11.8176C122.704 11.1112 121.61 10.7581 120.129 10.7581H119.48V10.1257ZM164.392 22.3108H159.026V28.9929C159.026 30.4513 159.385 31.5393 160.102 32.2571C160.82 32.9749 161.908 33.3337 163.367 33.3337H164.067V34.0002H148.994V33.3337H149.643C151.113 33.3337 152.201 32.9806 152.908 32.2742C153.625 31.5564 153.984 30.4626 153.984 28.9929V15.0989C153.984 13.6178 153.631 12.524 152.925 11.8176C152.218 11.1112 151.124 10.7581 149.643 10.7581H148.994V10.1257H167.502C170.009 10.1257 171.991 10.308 173.45 10.6726C174.908 11.0372 176.064 11.6524 176.919 12.5183C177.409 13.0082 177.796 13.5893 178.081 14.2615C178.377 14.9337 178.525 15.6002 178.525 16.261C178.525 18.0611 177.591 19.5081 175.722 20.6018C175.027 20.9778 174.082 21.3139 172.886 21.6101C171.689 21.9063 170.499 22.1057 169.314 22.2083C168.414 22.2766 167.041 22.3108 165.195 22.3108V22.3792C166.107 22.9716 166.933 23.4615 167.673 23.8489C168.414 24.2362 169.16 24.5667 169.912 24.8401C170.664 25.1021 171.518 25.3414 172.475 25.5579L173.039 26.4124C173.415 26.9592 173.694 27.3694 173.877 27.6428C174.059 27.9163 174.27 28.2296 174.509 28.5828C175.147 29.5512 175.751 30.3943 176.321 31.1121C176.902 31.8184 177.38 32.314 177.756 32.5989C178.497 33.0888 179.556 33.3337 180.935 33.3337H181.601V34.0002H172.646L164.392 22.3108ZM159.026 21.6785H165.827C167.434 21.6785 168.75 21.4848 169.775 21.0974C170.812 20.6986 171.581 20.1005 172.082 19.303C172.595 18.4941 172.851 17.4573 172.851 16.1926C172.851 12.5696 170.544 10.7581 165.93 10.7581H159.026V21.6785ZM198.794 9.64722C201.027 9.64722 203.066 10.0061 204.912 10.7239C206.769 11.4303 208.381 12.467 209.748 13.8342C210.899 14.9963 211.788 16.2952 212.414 17.7307C213.041 19.1549 213.354 20.6132 213.354 22.1057C213.354 24.3502 212.716 26.4181 211.44 28.3093C210.176 30.2006 208.45 31.6988 206.262 32.804C204.086 33.9091 201.699 34.4617 199.101 34.4617C197.119 34.4617 195.25 34.1484 193.496 33.5217C191.753 32.8951 190.215 32.0121 188.882 30.8728C187.549 29.7221 186.506 28.3834 185.754 26.8567C185.014 25.33 184.643 23.7349 184.643 22.0715C184.643 19.8612 185.287 17.7991 186.575 15.885C187.862 13.9709 189.588 12.4556 191.753 11.3391C193.917 10.2112 196.264 9.64722 198.794 9.64722ZM199.238 10.2625C198.201 10.2625 197.222 10.4447 196.299 10.8093C195.387 11.1625 194.618 11.6695 193.992 12.3303C193.308 13.0481 192.721 13.9026 192.231 14.8938C191.753 15.8736 191.388 16.9731 191.138 18.1921C190.898 19.3998 190.779 20.7043 190.779 22.1057C190.779 23.8603 190.972 25.461 191.36 26.908C191.747 28.3435 192.305 29.5854 193.034 30.6335C193.764 31.6703 194.635 32.4622 195.649 33.009C196.663 33.5559 197.791 33.8293 199.033 33.8293C200.719 33.8293 202.183 33.3508 203.425 32.3938C204.678 31.4254 205.635 30.0468 206.296 28.2581C206.968 26.4693 207.305 24.3445 207.305 21.8835C207.305 20.2885 207.122 18.796 206.758 17.406C206.393 16.016 205.869 14.8083 205.185 13.783C204.502 12.7462 203.676 11.9259 202.707 11.322C202.229 11.003 201.676 10.7467 201.05 10.553C200.423 10.3593 199.819 10.2625 199.238 10.2625Z" fill="#9A9A9A"/>
</svg>
