<svg width="210" height="58" viewBox="0 0 210 58" fill="none" xmlns="http://www.w3.org/2000/svg">
<path d="M9.71631 49.5827L25.7899 39.0047L41.8549 49.5827L25.7899 0.253662L9.71631 49.5827Z" fill="#9A9A9A"/>
<path d="M17.9378 15.949L0 22.2902L14.0559 27.1601L17.9378 15.949Z" fill="#9A9A9A"/>
<path d="M51.5712 22.2902L33.6334 15.949L37.5153 27.1601L51.5712 22.2902Z" fill="#9A9A9A"/>
<path d="M76.9237 9.40137H87.0605L101.987 47.6095H93.1872L90.458 40.3132H73.0806L70.3514 47.6095H61.9969L76.9237 9.40137ZM87.896 33.5738L84.2757 23.8826C83.8301 22.6944 83.0318 20.188 81.8807 16.3635H81.6022C80.4511 20.188 79.6528 22.6944 79.2072 23.8826L75.5869 33.5738H87.896Z" fill="#9A9A9A"/>
<path d="M111.826 48.2778C109.078 48.2778 107.11 47.5352 105.922 46.0499C104.734 44.5647 104.14 42.6896 104.14 40.4246V24.5509H100.631V18.3129H104.307L105.588 10.0697H111.77V18.3129H116.838V24.5509H111.77V39.6448C111.77 41.2414 112.568 42.0398 114.165 42.0398H116.838V47.3867C116.207 47.6095 115.409 47.8137 114.443 47.9993C113.515 48.185 112.643 48.2778 111.826 48.2778Z" fill="#9A9A9A"/>
<path d="M127.196 48.2778C124.931 48.2778 122.852 47.6837 120.958 46.4955C119.065 45.3073 118.118 43.1537 118.118 40.0347C118.118 36.2844 119.659 33.6295 122.741 32.07C125.823 30.4734 130.186 29.675 135.829 29.675V27.6143C135.829 26.3147 135.532 25.3121 134.938 24.6066C134.381 23.9011 133.305 23.5484 131.708 23.5484C130 23.5484 128.775 23.8083 128.032 24.3281C127.326 24.848 126.974 25.4606 126.974 26.1661V27.0016H119.622C119.585 26.7788 119.566 26.3704 119.566 25.7763C119.566 23.3256 120.643 21.3576 122.796 19.8724C124.987 18.3871 127.883 17.6445 131.485 17.6445C135.495 17.6445 138.484 18.4614 140.452 20.0952C142.457 21.729 143.46 24.0868 143.46 27.1687V40.0904C143.46 40.7587 143.646 41.26 144.017 41.5942C144.388 41.8912 144.852 42.0398 145.409 42.0398H146.969V47.3867C145.781 47.9808 144.314 48.2778 142.569 48.2778C141.046 48.2778 139.765 47.9436 138.726 47.2753C137.723 46.6069 137.036 45.6601 136.665 44.4347H136.331C135.254 45.6972 134.01 46.6626 132.599 47.331C131.225 47.9622 129.424 48.2778 127.196 48.2778ZM129.591 42.2626C131.745 42.2626 133.323 41.6685 134.326 40.4803C135.328 39.2549 135.829 37.6397 135.829 35.6346V34.7435C129.183 34.7435 125.86 36.2287 125.86 39.1992C125.86 40.1275 126.157 40.8701 126.751 41.4271C127.382 41.9841 128.329 42.2626 129.591 42.2626Z" fill="#9A9A9A"/>
<path d="M154.022 57.7463C151.979 57.7463 150.253 57.1151 148.842 55.8526C147.431 54.5901 146.725 52.9749 146.725 51.007C146.725 48.4078 148.229 46.4213 151.237 45.0474C149.343 44.082 148.396 42.6153 148.396 40.6473C148.396 39.422 148.879 38.3638 149.844 37.4726C150.81 36.5443 152.054 35.8945 153.576 35.5232C150.717 33.7781 149.287 31.1417 149.287 27.6143C149.287 24.5324 150.401 22.1003 152.629 20.318C154.894 18.5357 158.106 17.6445 162.265 17.6445C164.53 17.6445 166.498 17.923 168.169 18.48C169.283 17.7745 170.081 16.939 170.564 15.9736C171.083 14.9711 171.343 14.117 171.343 13.4115H178.807C178.807 15.4538 178.25 17.1061 177.136 18.3686C176.059 19.5939 174.518 20.4294 172.513 20.8749C174.37 22.6201 175.298 24.8665 175.298 27.6143C175.298 30.6962 174.202 33.1283 172.012 34.9106C169.858 36.6929 166.758 37.584 162.71 37.584H158.255C157.586 37.584 157.048 37.7325 156.639 38.0296C156.268 38.3266 156.082 38.7351 156.082 39.2549C156.082 39.7005 156.249 40.0904 156.584 40.4246C156.918 40.7216 157.363 40.8701 157.92 40.8701H171.232C173.386 40.8701 175.186 41.5942 176.635 43.0423C178.083 44.4904 178.807 46.3841 178.807 48.7234C178.807 50.5057 178.324 52.0838 177.359 53.4576C176.393 54.8315 175.075 55.8897 173.404 56.6324C171.733 57.375 169.895 57.7463 167.89 57.7463H154.022ZM162.265 32.4042C164.047 32.4042 165.402 31.9958 166.331 31.1789C167.259 30.3248 167.723 29.1366 167.723 27.6143C167.723 26.0919 167.259 24.9222 166.331 24.1054C165.402 23.2513 164.047 22.8243 162.265 22.8243C160.482 22.8243 159.127 23.2513 158.199 24.1054C157.308 24.9222 156.862 26.0919 156.862 27.6143C156.862 29.1366 157.308 30.3248 158.199 31.1789C159.127 31.9958 160.482 32.4042 162.265 32.4042ZM167.779 52.4551C168.744 52.4551 169.542 52.2137 170.174 51.731C170.805 51.2483 171.121 50.6171 171.121 49.8373C171.121 49.0205 170.824 48.3892 170.229 47.9436C169.672 47.4981 168.967 47.2753 168.113 47.2753H157.363C156.547 47.2753 155.841 47.5166 155.247 47.9993C154.69 48.482 154.411 49.0947 154.411 49.8373C154.411 50.6171 154.69 51.2483 155.247 51.731C155.804 52.2137 156.509 52.4551 157.363 52.4551H167.779Z" fill="#9A9A9A"/>
<path d="M194.362 48.2778C189.35 48.2778 185.618 47.0339 183.167 44.5461C180.717 42.0583 179.491 38.1967 179.491 32.9612C179.491 27.7257 180.717 23.864 183.167 21.3762C185.618 18.8884 189.35 17.6445 194.362 17.6445C199.375 17.6445 203.107 18.8884 205.557 21.3762C208.045 23.864 209.289 27.7257 209.289 32.9612C209.289 38.1967 208.045 42.0583 205.557 44.5461C203.107 47.0339 199.375 48.2778 194.362 48.2778ZM194.362 42.0398C196.85 42.0398 198.651 41.3343 199.765 39.9233C200.879 38.4752 201.436 36.303 201.436 33.4067V32.5156C201.436 29.6194 200.879 27.4657 199.765 26.0547C198.651 24.6066 196.85 23.8826 194.362 23.8826C191.875 23.8826 190.074 24.6066 188.96 26.0547C187.883 27.4657 187.345 29.6194 187.345 32.5156V33.4067C187.345 36.303 187.883 38.4752 188.96 39.9233C190.074 41.3343 191.875 42.0398 194.362 42.0398Z" fill="#9A9A9A"/>
</svg>
