<svg width="189" height="58" viewBox="0 0 189 58" fill="none" xmlns="http://www.w3.org/2000/svg">
<path d="M8.74411 24.3552C8.31543 24.3578 7.90514 24.5294 7.6021 24.8326C7.29895 25.1358 7.12754 25.5464 7.12495 25.9752V28.9752C7.09296 29.3816 6.90896 29.761 6.60981 30.0377C6.31056 30.3144 5.91816 30.468 5.51077 30.468C5.10328 30.468 4.71089 30.3144 4.41174 30.0377C4.11249 29.761 3.92859 29.3816 3.8966 28.9752V29.1752C3.8966 28.7456 3.72599 28.3335 3.42234 28.0297C3.1187 27.7259 2.70681 27.5552 2.27743 27.5552C1.84795 27.5552 1.43616 27.7259 1.13252 28.0297C0.828875 28.3335 0.658264 28.7456 0.658264 29.1752V55.7853C0.658264 56.215 0.828875 56.627 1.13252 56.9308C1.43616 57.2347 1.84795 57.4053 2.27743 57.4053C2.70681 57.4053 3.1187 57.2347 3.42234 56.9308C3.72599 56.627 3.8966 56.215 3.8966 55.7853V47.3453C3.87901 47.1226 3.9078 46.8986 3.98096 46.6874C4.05412 46.4763 4.17016 46.2826 4.32168 46.1185C4.4733 45.9544 4.65721 45.8235 4.86181 45.7339C5.0665 45.6444 5.28739 45.5981 5.51077 45.5981C5.73406 45.5981 5.95505 45.6444 6.15964 45.7339C6.36423 45.8235 6.54814 45.9544 6.69976 46.1185C6.85139 46.2826 6.96743 46.4763 7.04059 46.6874C7.11375 46.8986 7.14244 47.1226 7.12495 47.3453V52.5453C7.12495 52.975 7.29546 53.387 7.5992 53.6908C7.90285 53.9946 8.31463 54.1653 8.74411 54.1653C9.17349 54.1653 9.58538 53.9946 9.88903 53.6908C10.1927 53.387 10.3633 52.975 10.3633 52.5453V25.9552C10.358 25.529 10.1852 25.1221 9.88203 24.8226C9.57899 24.5231 9.17009 24.3552 8.74411 24.3552ZM5.51577 43.4653C5.30278 43.4667 5.09159 43.4257 4.89459 43.3447C4.69749 43.2638 4.51848 43.1445 4.36786 42.9938C4.21724 42.8431 4.098 42.664 4.01714 42.4668C3.93628 42.2697 3.8953 42.0584 3.8966 41.8453V34.5452C3.87901 34.3224 3.9078 34.0984 3.98096 33.8873C4.05412 33.6762 4.17016 33.4825 4.32168 33.3184C4.4733 33.1543 4.65721 33.0234 4.86181 32.9338C5.0665 32.8443 5.28739 32.798 5.51077 32.798C5.73406 32.798 5.95505 32.8443 6.15964 32.9338C6.36423 33.0234 6.54814 33.1543 6.69976 33.3184C6.85139 33.4825 6.96743 33.6762 7.04059 33.8873C7.11375 34.0984 7.14244 34.3224 7.12495 34.5452V41.8453C7.12625 42.0576 7.08566 42.268 7.00531 42.4645C6.92505 42.661 6.80671 42.8397 6.65718 42.9902C6.50756 43.1408 6.32975 43.2603 6.13395 43.3418C5.93805 43.4234 5.72796 43.4653 5.51577 43.4653Z" fill="#9A9A9A"/>
<path d="M21.6772 10.9554C21.466 10.9554 21.2568 10.9971 21.0615 11.078C20.8663 11.1589 20.6889 11.2775 20.5395 11.427C20.39 11.5765 20.2715 11.754 20.1906 11.9493C20.1098 12.1446 20.0681 12.354 20.0681 12.5654V33.7954C20.0681 34.2251 19.8976 34.6371 19.594 34.9409C19.2902 35.2448 18.8784 35.4154 18.449 35.4154C18.0196 35.4154 17.6077 35.2448 17.3041 34.9409C17.0004 34.6371 16.8299 34.2251 16.8299 33.7954V17.5255C16.8474 17.3027 16.8186 17.0787 16.7455 16.8676C16.6723 16.6564 16.5564 16.4627 16.4048 16.2986C16.2531 16.1345 16.0692 16.0036 15.8646 15.914C15.66 15.8245 15.4391 15.7783 15.2158 15.7783C14.9924 15.7783 14.7715 15.8245 14.5668 15.914C14.3622 16.0036 14.1783 16.1345 14.0267 16.2986C13.8751 16.4627 13.7591 16.6564 13.6859 16.8676C13.6127 17.0787 13.5841 17.3027 13.6016 17.5255V44.1354C13.5841 44.3582 13.6127 44.5822 13.6859 44.7933C13.7591 45.0045 13.8751 45.1981 14.0267 45.3622C14.1783 45.5263 14.3622 45.6573 14.5668 45.7469C14.7715 45.8364 14.9924 45.8826 15.2158 45.8826C15.4391 45.8826 15.66 45.8364 15.8646 45.7469C16.0692 45.6573 16.2531 45.5263 16.4048 45.3622C16.5564 45.1981 16.6723 45.0045 16.7455 44.7933C16.8186 44.5822 16.8474 44.3582 16.8299 44.1354V39.2854C16.8299 38.8558 17.0004 38.4437 17.3041 38.1399C17.6077 37.8361 18.0196 37.6654 18.449 37.6654C18.8784 37.6654 19.2902 37.8361 19.594 38.1399C19.8976 38.4437 20.0681 38.8558 20.0681 39.2854V39.1354C20.1001 39.5418 20.2841 39.9212 20.5832 40.1979C20.8825 40.4746 21.2749 40.6283 21.6822 40.6283C22.0897 40.6283 22.4822 40.4746 22.7814 40.1979C23.0805 39.9212 23.2644 39.5418 23.2964 39.1354V12.5154C23.2834 12.0954 23.1068 11.6972 22.8042 11.4057C22.5017 11.1142 22.0972 10.9526 21.6772 10.9554Z" fill="#9A9A9A"/>
<path d="M34.6106 0.595215C34.1811 0.595215 33.7693 0.765914 33.4657 1.06971C33.1621 1.37351 32.9915 1.78551 32.9915 2.21521V6.69521C32.9915 7.12481 32.8208 7.53691 32.5172 7.84071C32.2136 8.14451 31.8017 8.31521 31.3723 8.31521C30.9428 8.31521 30.5311 8.14451 30.2274 7.84071C29.9238 7.53691 29.7532 7.12481 29.7532 6.69521V5.85521C29.7212 5.44881 29.5372 5.06941 29.238 4.79271C28.9389 4.51601 28.5464 4.36241 28.139 4.36241C27.7316 4.36241 27.3391 4.51601 27.04 4.79271C26.7408 5.06941 26.5569 5.44881 26.5249 5.85521V32.4652C26.5074 32.688 26.5361 32.9119 26.6092 33.1231C26.6824 33.3342 26.7984 33.5279 26.9501 33.692C27.1016 33.8561 27.2855 33.987 27.4902 34.0766C27.6948 34.1661 27.9156 34.2124 28.139 34.2124C28.3624 34.2124 28.5833 34.1661 28.7879 34.0766C28.9926 33.987 29.1765 33.8561 29.328 33.692C29.4796 33.5279 29.5957 33.3342 29.6688 33.1231C29.742 32.9119 29.7707 32.688 29.7532 32.4652V12.2252C29.7532 11.7955 29.9238 11.3835 30.2274 11.0797C30.5311 10.7759 30.9428 10.6052 31.3723 10.6052C31.8017 10.6052 32.2136 10.7759 32.5172 11.0797C32.8208 11.3835 32.9915 11.7955 32.9915 12.2252V28.8252C32.9915 29.2548 33.1621 29.6669 33.4657 29.9707C33.7693 30.2745 34.1811 30.4452 34.6106 30.4452C35.04 30.4452 35.4519 30.2745 35.7555 29.9707C36.0591 29.6669 36.2297 29.2548 36.2297 28.8252V2.21521C36.227 1.78641 36.0557 1.37582 35.7526 1.07262C35.4496 0.769316 35.0392 0.597815 34.6106 0.595215Z" fill="#9A9A9A"/>
<path d="M60.4771 27.3453C60.0495 27.348 59.6402 27.5198 59.3387 27.8233C59.0372 28.1268 58.868 28.5374 58.8681 28.9653V31.2753C58.8681 31.705 58.6975 32.117 58.3938 32.4208C58.0902 32.7246 57.6783 32.8953 57.2489 32.8953C56.8195 32.8953 56.4077 32.7246 56.1039 32.4208C55.8003 32.117 55.6298 31.705 55.6298 31.2753V24.7653C55.6298 24.3357 55.4592 23.9236 55.1555 23.6198C54.8519 23.316 54.44 23.1453 54.0106 23.1453C53.5811 23.1453 53.1694 23.316 52.8657 23.6198C52.562 23.9236 52.3915 24.3357 52.3915 24.7653V38.6753C52.3595 39.0817 52.1755 39.4611 51.8763 39.7377C51.5771 40.0144 51.1847 40.1681 50.7772 40.1681C50.3698 40.1681 49.9774 40.0144 49.6782 39.7377C49.3791 39.4611 49.195 39.0817 49.1631 38.6753V17.3953C49.1631 16.9657 48.9926 16.5536 48.6888 16.2498C48.3852 15.946 47.9734 15.7753 47.5439 15.7753C47.1145 15.7753 46.7027 15.946 46.399 16.2498C46.0954 16.5536 45.9248 16.9657 45.9248 17.3953V32.2453C45.9424 32.4681 45.9136 32.6921 45.8404 32.9032C45.7672 33.1143 45.6513 33.308 45.4997 33.4721C45.3481 33.6362 45.1642 33.7672 44.9596 33.8567C44.755 33.9463 44.534 33.9925 44.3106 33.9925C44.0873 33.9925 43.8663 33.9463 43.6618 33.8567C43.4572 33.7672 43.2733 33.6362 43.1216 33.4721C42.97 33.308 42.8541 33.1143 42.7809 32.9032C42.7078 32.6921 42.679 32.4681 42.6966 32.2453V11.0753C42.6966 10.6457 42.5259 10.2336 42.2223 9.92982C41.9187 9.62602 41.5068 9.45532 41.0774 9.45532C40.6479 9.45532 40.2361 9.62602 39.9325 9.92982C39.6288 10.2336 39.4583 10.6457 39.4583 11.0753V37.6853C39.4583 38.115 39.6288 38.527 39.9325 38.8308C40.2361 39.1346 40.6479 39.3053 41.0774 39.3053C41.5068 39.3053 41.9187 39.1346 42.2223 38.8308C42.5259 38.527 42.6966 38.115 42.6966 37.6853V37.7753C42.7285 37.3689 42.9124 36.9895 43.2116 36.7128C43.5108 36.4362 43.9032 36.2825 44.3106 36.2825C44.7181 36.2825 45.1105 36.4362 45.4097 36.7128C45.7089 36.9895 45.8928 37.3689 45.9248 37.7753V44.0053C45.9248 44.4349 46.0954 44.847 46.399 45.1508C46.7027 45.4546 47.1145 45.6253 47.5439 45.6253C47.9734 45.6253 48.3852 45.4546 48.6888 45.1508C48.9926 44.847 49.1631 44.4349 49.1631 44.0053V44.2053C49.1456 43.9825 49.1743 43.7585 49.2474 43.5474C49.3206 43.3363 49.4367 43.1426 49.5882 42.9785C49.7399 42.8144 49.9238 42.6835 50.1284 42.5939C50.333 42.5044 50.5539 42.4581 50.7772 42.4581C51.0006 42.4581 51.2215 42.5044 51.4262 42.5939C51.6308 42.6835 51.8147 42.8144 51.9663 42.9785C52.1178 43.1426 52.234 43.3363 52.3071 43.5474C52.3803 43.7585 52.409 43.9825 52.3915 44.2053V51.3753C52.3915 51.805 52.562 52.217 52.8657 52.5208C53.1694 52.8246 53.5811 52.9953 54.0106 52.9953C54.44 52.9953 54.8519 52.8246 55.1555 52.5208C55.4592 52.217 55.6298 51.805 55.6298 51.3753V36.8153C55.6298 36.3856 55.8003 35.9736 56.1039 35.6698C56.4077 35.366 56.8195 35.1953 57.2489 35.1953C57.6783 35.1953 58.0902 35.366 58.3938 35.6698C58.6975 35.9736 58.8681 36.3856 58.8681 36.8153V55.5753C58.8505 55.7981 58.8793 56.0221 58.9524 56.2332C59.0256 56.4443 59.1415 56.638 59.2932 56.8021C59.4448 56.9662 59.6287 57.0971 59.8333 57.1867C60.0379 57.2762 60.2589 57.3225 60.4821 57.3225C60.7055 57.3225 60.9264 57.2762 61.1311 57.1867C61.3357 57.0971 61.5196 56.9662 61.6712 56.8021C61.8228 56.638 61.9389 56.4443 62.012 56.2332C62.0852 56.0221 62.1139 55.7981 62.0963 55.5753V28.9553C62.0937 28.5274 61.922 28.1179 61.6186 27.8162C61.3152 27.5146 60.9049 27.3453 60.4771 27.3453Z" fill="#9A9A9A"/>
<path d="M95.0041 44.0003H86.2541L79.0791 19.9903H86.7091L90.9091 34.9003H91.0491L95.2141 19.9903H102.284L95.0041 44.0003Z" fill="#9A9A9A"/>
<path d="M121.333 38.8203C121.333 39.2636 121.438 39.5903 121.648 39.8003C121.858 40.0103 122.115 40.1153 122.418 40.1153C122.861 40.1153 123.27 40.0103 123.643 39.8003V43.5453C122.896 44.082 121.718 44.3503 120.108 44.3503C118.615 44.3503 117.471 44.117 116.678 43.6503C115.885 43.1603 115.313 42.4486 114.963 41.5153C114.566 42.122 113.913 42.752 113.003 43.4053C112.093 44.0353 111.09 44.3503 109.993 44.3503H109.013C108.056 44.3503 107.17 44.117 106.353 43.6503C105.56 43.1836 104.93 42.5536 104.463 41.7603C103.996 40.9436 103.763 40.057 103.763 39.1003V26.1153H110.693V37.3153C110.693 37.8986 110.868 38.4003 111.218 38.8203C111.591 39.217 112.035 39.4153 112.548 39.4153C113.061 39.4153 113.493 39.217 113.843 38.8203C114.216 38.4003 114.403 37.8986 114.403 37.3153V26.1153H121.333V38.8203Z" fill="#9A9A9A"/>
<path d="M135.05 25.7653C137.757 25.7653 139.822 26.2903 141.245 27.3403C142.692 28.3903 143.415 29.7553 143.415 31.4353V38.8203C143.415 39.2636 143.52 39.5903 143.73 39.8003C143.94 40.0103 144.197 40.1153 144.5 40.1153C144.944 40.1153 145.352 40.0103 145.725 39.8003V43.5453C144.979 44.082 143.8 44.3503 142.19 44.3503C140.697 44.3503 139.519 44.1053 138.655 43.6153C137.792 43.102 137.255 42.402 137.045 41.5153C136.299 42.3786 135.47 43.067 134.56 43.5803C133.674 44.0936 132.577 44.3503 131.27 44.3503C129.404 44.3503 127.887 43.9886 126.72 43.2653C125.554 42.542 124.97 41.1186 124.97 38.9953C124.97 37.3853 125.425 36.1486 126.335 35.2853C127.245 34.3986 128.54 33.792 130.22 33.4653C131.924 33.1153 134.082 32.9403 136.695 32.9403V31.9253C136.695 31.272 136.474 30.7586 136.03 30.3853C135.61 30.012 135.074 29.8253 134.42 29.8253C133.884 29.8253 133.37 29.9886 132.88 30.3153C132.414 30.6186 132.18 31.0036 132.18 31.4703V31.6103H125.53C125.507 31.5403 125.495 31.377 125.495 31.1203C125.495 30.117 125.834 29.2186 126.51 28.4253C127.21 27.6086 128.19 26.967 129.45 26.5003C130.734 26.0103 132.215 25.7653 133.895 25.7653H135.05ZM136.695 36.1253C135.155 36.1253 134.024 36.3353 133.3 36.7553C132.577 37.152 132.215 37.712 132.215 38.4353C132.215 39.5553 132.915 40.1153 134.315 40.1153C134.969 40.1153 135.529 39.8936 135.995 39.4503C136.462 38.9836 136.695 38.3886 136.695 37.6653V36.1253Z" fill="#9A9A9A"/>
<path d="M154.651 18.8003V32.7653L159.201 26.1153H167.111L160.846 34.2003L167.216 44.0003H159.061L155.911 38.9253L154.651 40.0103V44.0003H147.721V18.8003H154.651Z" fill="#9A9A9A"/>
<path d="M177.98 25.7653C180.687 25.7653 182.752 26.2903 184.175 27.3403C185.622 28.3903 186.345 29.7553 186.345 31.4353V38.8203C186.345 39.2636 186.45 39.5903 186.66 39.8003C186.87 40.0103 187.127 40.1153 187.43 40.1153C187.873 40.1153 188.282 40.0103 188.655 39.8003V43.5453C187.908 44.082 186.73 44.3503 185.12 44.3503C183.627 44.3503 182.448 44.1053 181.585 43.6153C180.722 43.102 180.185 42.402 179.975 41.5153C179.228 42.3786 178.4 43.067 177.49 43.5803C176.603 44.0936 175.507 44.3503 174.2 44.3503C172.333 44.3503 170.817 43.9886 169.65 43.2653C168.483 42.542 167.9 41.1186 167.9 38.9953C167.9 37.3853 168.355 36.1486 169.265 35.2853C170.175 34.3986 171.47 33.792 173.15 33.4653C174.853 33.1153 177.012 32.9403 179.625 32.9403V31.9253C179.625 31.272 179.403 30.7586 178.96 30.3853C178.54 30.012 178.003 29.8253 177.35 29.8253C176.813 29.8253 176.3 29.9886 175.81 30.3153C175.343 30.6186 175.11 31.0036 175.11 31.4703V31.6103H168.46C168.437 31.5403 168.425 31.377 168.425 31.1203C168.425 30.117 168.763 29.2186 169.44 28.4253C170.14 27.6086 171.12 26.967 172.38 26.5003C173.663 26.0103 175.145 25.7653 176.825 25.7653H177.98ZM179.625 36.1253C178.085 36.1253 176.953 36.3353 176.23 36.7553C175.507 37.152 175.145 37.712 175.145 38.4353C175.145 39.5553 175.845 40.1153 177.245 40.1153C177.898 40.1153 178.458 39.8936 178.925 39.4503C179.392 38.9836 179.625 38.3886 179.625 37.6653V36.1253Z" fill="#9A9A9A"/>
</svg>
