<svg width="25" height="24" viewBox="0 0 25 24" fill="none" xmlns="http://www.w3.org/2000/svg">
<path d="M22.5 0H2.5C1.12167 0 0 1.12167 0 2.5V15.8333C0 17.2117 1.12167 18.3333 2.5 18.3333H5V22.5C5 22.8208 5.18417 23.1117 5.47167 23.2508C5.5875 23.3058 5.71083 23.3333 5.83333 23.3333C6.01917 23.3333 6.20333 23.2717 6.35417 23.1508L12.3758 18.3333H22.5C23.8783 18.3333 25 17.2117 25 15.8333V2.5C25 1.12167 23.8783 0 22.5 0Z" fill="#E3F2FD"/>
<path d="M5.83333 23.3333C5.71083 23.3333 5.5875 23.3058 5.47167 23.2508C5.18417 23.1117 5 22.8208 5 22.5V18.3333H2.5C1.12167 18.3333 0 17.2117 0 15.8333V2.5C0 1.12167 1.12167 0 2.5 0H22.5C23.8783 0 25 1.12167 25 2.5V15.8333C25 17.2117 23.8783 18.3333 22.5 18.3333H12.3758L6.35417 23.1508C6.20333 23.2717 6.01917 23.3333 5.83333 23.3333ZM2.5 1.66667C2.04 1.66667 1.66667 2.04083 1.66667 2.5V15.8333C1.66667 16.2925 2.04 16.6667 2.5 16.6667H5.83333C6.29417 16.6667 6.66667 17.0392 6.66667 17.5V20.7667L11.5625 16.8492C11.7108 16.7308 11.8933 16.6667 12.0833 16.6667H22.5C22.96 16.6667 23.3333 16.2925 23.3333 15.8333V2.5C23.3333 2.04083 22.96 1.66667 22.5 1.66667H2.5Z" fill="#42A5F5"/>
<path d="M19.1667 8.33329H5.83333C5.3725 8.33329 5 7.95996 5 7.49996C5 7.03996 5.3725 6.66663 5.83333 6.66663H19.1667C19.6275 6.66663 20 7.03996 20 7.49996C20 7.95996 19.6275 8.33329 19.1667 8.33329Z" fill="#42A5F5"/>
<path d="M12.5 11.6667H5.83333C5.3725 11.6667 5 11.2933 5 10.8333C5 10.3733 5.3725 10 5.83333 10H12.5C12.9608 10 13.3333 10.3733 13.3333 10.8333C13.3333 11.2933 12.9608 11.6667 12.5 11.6667Z" fill="#42A5F5"/>
</svg>
