<svg width="90" height="90" viewBox="0 0 90 90" fill="none" xmlns="http://www.w3.org/2000/svg">
<path d="M32.0068 12.1783C39.3148 5.32861 50.6852 5.32861 57.9932 12.1783L68.2285 21.7715L77.8217 32.0067C84.6714 39.3148 84.6714 50.6852 77.8217 57.9933L68.2285 68.2285L57.9932 77.8217C50.6852 84.6714 39.3148 84.6714 32.0067 77.8217L21.7715 68.2285L12.1783 57.9932C5.32861 50.6852 5.32861 39.3148 12.1783 32.0068L21.7715 21.7715L32.0068 12.1783Z" fill="#F7F8FA"/>
<g clip-path="url(#clip0_322:9)">
<path d="M62.4166 32.8335H48.4166C48.0945 32.8335 47.8333 33.0947 47.8333 33.4168V38.6668C47.8335 38.989 48.0949 39.2499 48.417 39.2497C48.4795 39.2497 48.5417 39.2396 48.6009 39.2198L49.3342 38.9754C50.1303 38.7148 50.9868 39.149 51.2474 39.9451C51.5079 40.7412 51.0738 41.5977 50.2777 41.8583C49.9712 41.9586 49.6407 41.9586 49.3341 41.8583L48.6009 41.6138C48.2952 41.512 47.9649 41.6773 47.8631 41.9829C47.8433 42.0422 47.8333 42.1043 47.8332 42.1668V46.8335H43.1665C42.8444 46.8337 42.5834 47.0951 42.5836 47.4173C42.5837 47.4798 42.5938 47.5419 42.6135 47.6012L42.8579 48.3344C43.1185 49.1305 42.6844 49.9871 41.8883 50.2476C41.0922 50.5082 40.2356 50.0741 39.9751 49.278C39.8748 48.9714 39.8748 48.6409 39.9751 48.3344L40.2195 47.6011C40.3213 47.2954 40.1561 46.9651 39.8504 46.8633C39.7911 46.8436 39.729 46.8335 39.6665 46.8334H34.4166C34.0944 46.8334 33.8333 47.0946 33.8333 47.4168V61.4168C33.8333 61.7389 34.0944 62.0001 34.4166 62.0001H62.4166C62.7388 62.0001 62.9999 61.7389 62.9999 61.4168V33.4168C62.9999 33.0947 62.7388 32.8335 62.4166 32.8335ZM47.8632 55.983C47.8434 56.0422 47.8333 56.1044 47.8333 56.1669V60.8335H34.9999V48.0002H38.8575C38.4118 49.4135 39.1962 50.9206 40.6096 51.3663C42.0229 51.812 43.53 51.0276 43.9757 49.6143C44.1413 49.089 44.1413 48.5254 43.9757 48.0001H47.8333V52.6668C47.8335 52.9889 48.0949 53.2499 48.417 53.2497C48.4795 53.2496 48.5417 53.2395 48.6009 53.2198L49.3342 52.9754C50.1303 52.7148 50.9868 53.1489 51.2474 53.945C51.5079 54.7411 51.0738 55.5977 50.2777 55.8582C49.9712 55.9585 49.6407 55.9585 49.3341 55.8582L48.6009 55.6138C48.2953 55.5121 47.965 55.6773 47.8632 55.983ZM61.8333 60.8335H48.9999V56.9759C50.4133 57.4217 51.9204 56.6372 52.3661 55.2239C52.8118 53.8105 52.0274 52.3034 50.614 51.8578C50.0887 51.6921 49.5252 51.6921 48.9999 51.8578V48.0002H53.6665C53.9887 48 54.2496 47.7386 54.2494 47.4164C54.2494 47.3539 54.2393 47.2918 54.2195 47.2325L53.9751 46.4993C53.7146 45.7032 54.1487 44.8466 54.9448 44.5861C55.7409 44.3255 56.5974 44.7596 56.858 45.5557C56.9583 45.8623 56.9583 46.1928 56.858 46.4993L56.6135 47.2326C56.5117 47.5382 56.677 47.8686 56.9826 47.9704C57.0419 47.9901 57.104 48.0002 57.1665 48.0002H61.8332V60.8335H61.8333ZM61.8333 46.8335H57.9757C58.4214 45.4202 57.637 43.913 56.2236 43.4674C54.8103 43.0216 53.3032 43.8061 52.8575 45.2194C52.6919 45.7447 52.6919 46.3083 52.8575 46.8336H48.9999V42.976C49.8101 43.2386 50.6971 43.0969 51.3852 42.5951C52.5917 41.7345 52.8721 40.0588 52.0115 38.8523C51.332 37.8996 50.1133 37.4972 48.9999 37.8578V34.0002H61.8333V46.8335Z" fill="#258AFF"/>
<path d="M44.7808 32.0243C44.2555 31.8586 43.692 31.8586 43.1667 32.0243V27.5833C43.1667 27.2612 42.9055 27 42.5833 27H28.5833C28.2612 27 28 27.2612 28 27.5833V41.5833C28 41.9055 28.2612 42.1667 28.5833 42.1667H33.0243C32.5785 43.58 33.363 45.0871 34.7763 45.5328C36.1896 45.9785 37.6968 45.1941 38.1424 43.7808C38.3081 43.2555 38.3081 42.6919 38.1424 42.1666H42.5833C42.9055 42.1666 43.1667 41.9054 43.1667 41.5833V37.1424C44.58 37.5881 46.0871 36.8037 46.5328 35.3903C46.9786 33.977 46.1942 32.47 44.7808 32.0243ZM44.4445 36.0248C44.138 36.1251 43.8075 36.1251 43.5009 36.0248L42.7677 35.7803C42.462 35.6786 42.1317 35.8438 42.0299 36.1494C42.0102 36.2087 42.0001 36.2709 42 36.3333V41H37.3333C37.0112 41.0002 36.7502 41.2616 36.7504 41.5838C36.7505 41.6463 36.7606 41.7084 36.7803 41.7677L37.0248 42.5009C37.2854 43.297 36.8512 44.1536 36.0551 44.4141C35.259 44.6747 34.4025 44.2406 34.1419 43.4445C34.0416 43.1379 34.0416 42.8074 34.1419 42.5009L34.3863 41.7676C34.4881 41.4619 34.3229 41.1316 34.0172 41.0298C33.958 41.0101 33.8958 41 33.8333 40.9999H29.1667V28.1667H42V32.8333C42.0002 33.1555 42.2616 33.4165 42.5838 33.4162C42.6463 33.4162 42.7084 33.4061 42.7677 33.3863L43.5009 33.1419C44.297 32.8814 45.1536 33.3155 45.4141 34.1116C45.6747 34.9076 45.2406 35.7642 44.4445 36.0248Z" fill="#258AFF"/>
</g>
<defs>
<clipPath id="clip0_322:9">
<rect width="35" height="35" fill="white" transform="translate(28 27)"/>
</clipPath>
</defs>
</svg>
