<svg width="90" height="90" viewBox="0 0 90 90" fill="none" xmlns="http://www.w3.org/2000/svg">
<path d="M32.0068 12.1783C39.3148 5.32861 50.6852 5.32861 57.9932 12.1783L68.2285 21.7715L77.8217 32.0067C84.6714 39.3148 84.6714 50.6852 77.8217 57.9933L68.2285 68.2285L57.9932 77.8217C50.6852 84.6714 39.3148 84.6714 32.0067 77.8217L21.7715 68.2285L12.1783 57.9932C5.32861 50.6852 5.32861 39.3148 12.1783 32.0068L21.7715 21.7715L32.0068 12.1783Z" fill="#F7F8FA"/>
<path d="M59.0322 24H49.6308C48.5201 24 47.6163 24.9043 47.6163 26.0156V27.3594C46.1349 27.3594 44.9302 28.5647 44.9302 30.0469C44.9302 31.529 46.1349 32.7344 47.6163 32.7344V36.0938H52.9885V34.75C52.9885 34.0089 53.5908 33.4062 54.3315 33.4062C55.0722 33.4062 55.6746 34.0089 55.6746 34.75V36.0938H59.0322C60.1429 36.0938 61.0468 35.1894 61.0468 34.0781V26.0156C61.0468 24.9043 60.1429 24 59.0322 24ZM59.7037 34.0781C59.7037 34.4483 59.4029 34.75 59.0322 34.75H57.0176C57.0176 33.2678 55.8129 32.0625 54.3315 32.0625C52.8501 32.0625 51.6454 33.2678 51.6454 34.75H48.9593V31.3906H47.6163C46.8756 31.3906 46.2732 30.788 46.2732 30.0469C46.2732 29.3058 46.8756 28.7031 47.6163 28.7031H48.9593V26.0156C48.9593 25.6454 49.2602 25.3438 49.6308 25.3438H59.0322C59.4029 25.3438 59.7037 25.6454 59.7037 26.0156V34.0781Z" fill="#258AFF"/>
<path d="M47.6164 37.4375C46.135 37.4375 44.9303 38.6428 44.9303 40.125H42.2442V36.7656H40.9011C40.1604 36.7656 39.5581 36.163 39.5581 35.4219C39.5581 34.6808 40.1604 34.0781 40.9011 34.0781H42.2442V28.0312H40.4438C33.2907 28.0312 27.4706 33.8544 27.4706 41.0112C27.4706 44.9202 29.2051 48.5819 32.229 51.0571L34.8574 53.2091V55.0305C34.0777 55.3087 33.5143 56.0478 33.5143 56.9225C33.5143 57.8517 34.1489 58.6284 35.0051 58.8602C34.9118 59.092 34.8574 59.344 34.8574 59.6094C34.8574 60.4976 35.4383 61.2447 36.2367 61.5128C36.5147 63.8429 38.4991 65.6562 40.9011 65.6562C43.3032 65.6562 45.2875 63.8429 45.5655 61.5128C46.364 61.2447 46.9449 60.4976 46.9449 59.6094C46.9449 59.344 46.8905 59.092 46.7971 58.8596C47.6533 58.6271 48.2879 57.8511 48.2879 56.9219C48.2879 56.0471 47.7245 55.308 46.9449 55.0299V53.2084L49.5732 51.0564C52.5971 48.5819 54.3317 44.9202 54.3317 41.0112V40.125H50.3025C50.3025 38.6428 49.0978 37.4375 47.6164 37.4375ZM40.4438 29.375H40.9011V32.7344C39.4197 32.7344 38.215 33.9397 38.215 35.4219C38.215 36.904 39.4197 38.1094 40.9011 38.1094V40.125H38.215C38.215 38.6428 37.0103 37.4375 35.5289 37.4375C34.0475 37.4375 32.8428 38.6428 32.8428 40.125H28.8472C29.3012 34.1211 34.3289 29.375 40.4438 29.375ZM33.0792 50.017C30.4864 47.8946 28.9513 44.7999 28.823 41.4688H34.1859V40.125C34.1859 39.3839 34.7882 38.7812 35.5289 38.7812C36.2696 38.7812 36.872 39.3839 36.872 40.125V41.4688H40.9011V44.1562C39.4197 44.1562 38.215 45.3616 38.215 46.8438C38.215 48.3259 39.4197 49.5312 40.9011 49.5312V54.9062H36.2004V52.5722L33.0792 50.017ZM40.9011 64.3125C39.2801 64.3125 37.9236 63.1562 37.6113 61.625H44.1909C43.8787 63.1562 42.5222 64.3125 40.9011 64.3125ZM44.9303 60.2812H36.872C36.5013 60.2812 36.2004 59.9796 36.2004 59.6094C36.2004 59.2392 36.5013 58.9375 36.872 58.9375H44.9303C45.301 58.9375 45.6018 59.2392 45.6018 59.6094C45.6018 59.9796 45.301 60.2812 44.9303 60.2812ZM46.2733 57.5938H44.9303H36.872H35.5289C35.1582 57.5938 34.8574 57.2921 34.8574 56.9219C34.8574 56.5517 35.1582 56.25 35.5289 56.25H46.2733C46.644 56.25 46.9449 56.5517 46.9449 56.9219C46.9449 57.2921 46.644 57.5938 46.2733 57.5938ZM48.7231 50.017L45.6018 52.5722V54.9062H42.2442V48.1875H40.9011C40.1604 48.1875 39.5581 47.5848 39.5581 46.8438C39.5581 46.1027 40.1604 45.5 40.9011 45.5H42.2442V41.4688H46.2733V40.125C46.2733 39.3839 46.8757 38.7812 47.6164 38.7812C48.3571 38.7812 48.9594 39.3839 48.9594 40.125V41.4688H52.9792C52.8509 44.7999 51.3158 47.8946 48.7231 50.017Z" fill="#258AFF"/>
</svg>
