<svg width="100" height="100" viewBox="0 0 100 100" fill="none" xmlns="http://www.w3.org/2000/svg">
<g clip-path="url(#clip0_429:8)">
<path d="M50 91.6667C27.0834 91.6667 8.33337 72.9167 8.33337 50C8.33337 27.0834 27.0834 8.33337 50 8.33337C72.9167 8.33337 91.6667 27.0834 91.6667 50C91.6667 72.9167 72.9167 91.6667 50 91.6667ZM50 12.5C29.1667 12.5 12.5 29.1667 12.5 50C12.5 70.8334 29.1667 87.5 50 87.5C70.8334 87.5 87.5 70.8334 87.5 50C87.5 29.1667 70.8334 12.5 50 12.5Z" fill="#258AFF"/>
<path d="M50 20.8333C48.75 20.8333 47.9166 20 47.9166 18.75V2.08333C47.9166 0.833333 48.75 0 50 0C51.25 0 52.0833 0.833333 52.0833 2.08333V18.75C52.0833 20 51.25 20.8333 50 20.8333Z" fill="#258AFF"/>
<path d="M50 20.8333C48.75 20.8333 47.9166 20 47.9166 18.75V2.08333C47.9166 0.833333 48.75 0 50 0C51.25 0 52.0833 0.833333 52.0833 2.08333V18.75C52.0833 20 51.25 20.8333 50 20.8333Z" fill="#258AFF"/>
<path d="M97.9167 52.0833H81.2501C80.0001 52.0833 79.1667 51.25 79.1667 50C79.1667 48.75 80.0001 47.9166 81.2501 47.9166H97.9167C99.1667 47.9166 100 48.75 100 50C100 51.25 99.1667 52.0833 97.9167 52.0833Z" fill="#258AFF"/>
<path d="M50 100C48.75 100 47.9166 99.1667 47.9166 97.9167V81.2501C47.9166 80.0001 48.75 79.1667 50 79.1667C51.25 79.1667 52.0833 80.0001 52.0833 81.2501V97.9167C52.0833 99.1667 51.25 100 50 100Z" fill="#258AFF"/>
<path d="M18.75 52.0833H2.08333C0.833333 52.0833 0 51.25 0 50C0 48.75 0.833333 47.9166 2.08333 47.9166H18.75C20 47.9166 20.8333 48.75 20.8333 50C20.8333 51.25 20 52.0833 18.75 52.0833Z" fill="#258AFF"/>
<path d="M50 45.8333C45.4166 45.8333 41.6666 42.0833 41.6666 37.5C41.6666 32.9166 45.4166 29.1666 50 29.1666C54.5833 29.1666 58.3333 32.9166 58.3333 37.5C58.3333 42.0833 54.5833 45.8333 50 45.8333ZM50 33.3333C47.5 33.3333 45.8333 35 45.8333 37.5C45.8333 40 47.5 41.6666 50 41.6666C52.5 41.6666 54.1666 40 54.1666 37.5C54.1666 35 52.5 33.3333 50 33.3333Z" fill="#258AFF"/>
<path d="M64.5833 66.6667C63.3333 66.6667 62.4999 65.8333 62.4999 64.5833V60.4167C62.4999 57.0833 59.5833 54.1667 56.2499 54.1667H43.7499C40.4166 54.1667 37.4999 57.0833 37.4999 60.4167V64.5833C37.4999 65.8333 36.6666 66.6667 35.4166 66.6667C34.1666 66.6667 33.3333 65.8333 33.3333 64.5833V60.4167C33.3333 54.5833 37.9166 50 43.7499 50H56.2499C62.0833 50 66.6666 54.5833 66.6666 60.4167V64.5833C66.6666 65.8333 65.8333 66.6667 64.5833 66.6667Z" fill="#258AFF"/>
</g>
<defs>
<clipPath id="clip0_429:8">
<rect width="100" height="100" fill="white"/>
</clipPath>
</defs>
</svg>
