<svg width="100" height="100" viewBox="0 0 100 100" fill="none" xmlns="http://www.w3.org/2000/svg">
<g clip-path="url(#clip0_439:65)">
<path d="M18.4506 88.7876C18.8628 89.123 19.359 89.2864 19.8519 89.2864C20.4971 89.2864 21.1372 89.0068 21.5761 88.4674C22.3506 87.5159 22.2072 86.1166 21.2559 85.342C14.6927 79.9989 9.84931 73.0786 7.08892 65.344C15.4451 67.035 24.0355 68.2216 32.7756 68.8937C33.1826 72.9053 33.721 76.7619 34.384 80.3904C34.6046 81.5972 35.7616 82.396 36.9686 82.1765C38.1756 81.9559 38.9751 80.7987 38.7547 79.5919C38.1537 76.303 37.6583 72.8175 37.2734 69.1936C40.8891 69.3975 44.5292 69.5145 48.1859 69.5434C48.1918 69.5434 48.198 69.5434 48.2039 69.5434C49.4228 69.5434 50.4153 68.5602 50.4249 67.3394C50.4346 66.1124 49.4479 65.11 48.2212 65.1003C44.412 65.0702 40.6223 64.9428 36.86 64.719C36.484 59.9609 36.2908 55.0145 36.2908 49.9993C36.2908 45.8495 36.4211 41.7764 36.6721 37.8418C41.0493 38.1351 45.4921 38.2819 49.9927 38.2819C54.4713 38.2819 58.9169 38.1328 63.3091 37.8366C63.5162 41.0502 63.6423 44.3522 63.6816 47.7064C63.6959 48.9246 64.6874 49.9021 65.9024 49.9021C65.911 49.9021 65.9199 49.9021 65.9288 49.9021C67.1556 49.8877 68.1385 48.8816 68.1242 47.6548C68.0839 44.2033 67.9526 40.8024 67.7361 37.4866C72.6773 37.0376 77.541 36.3998 82.2985 35.5751C83.5073 35.3656 84.3177 34.2158 84.1081 33.0068C83.8986 31.798 82.7483 30.9869 81.5398 31.1972C76.9185 31.9982 72.1935 32.6187 67.3918 33.0564C66.4447 22.5776 64.6309 13.1759 62.1546 6.08298C71.4449 8.63701 79.7374 14.1079 85.8649 21.9265C86.6219 22.8924 88.018 23.0614 88.9839 22.3049C89.9495 21.5481 90.1191 20.1517 89.3621 19.1861C79.8094 6.99776 65.46 0.00732422 49.992 0.00732422C46.9719 0.00732422 44.0116 0.276871 41.1377 0.792514C41.0713 0.801647 41.0051 0.813495 40.94 0.828552C24.5119 3.84589 10.8658 14.92 4.26831 29.7895C4.19969 29.9124 4.14169 30.0435 4.09651 30.1815C1.46177 36.2606 0 42.9632 0 49.9993C0 65.1043 6.72509 79.2421 18.4506 88.7876ZM42.9944 4.98702C45.2761 4.6338 47.6127 4.4504 49.992 4.4504C52.3574 4.4504 54.6947 4.62985 56.9869 4.9811C59.8462 11.894 61.9342 21.9477 62.9667 33.4064C58.6881 33.6942 54.3568 33.8386 49.9922 33.8386C45.6057 33.8386 41.2744 33.6957 37.0106 33.4113C38.0347 21.9588 40.1131 11.9459 42.9944 4.98702ZM37.8209 6.10149C35.3326 13.2163 33.5272 22.5878 32.587 33.0633C24.5823 32.3364 16.8286 31.1004 9.39142 29.3632C15.1351 18.1096 25.4245 9.5429 37.8209 6.10149ZM4.44307 49.9993C4.44307 44.1804 5.54051 38.6112 7.53841 33.4908C15.451 35.3841 23.7122 36.7214 32.2456 37.4935C31.9832 41.5483 31.8472 45.7377 31.8472 49.9993C31.8472 54.8966 32.0274 59.7343 32.3794 64.4057C23.2676 63.6736 14.3292 62.3706 5.66072 60.5072C4.85801 57.103 4.44307 53.5812 4.44307 49.9993ZM82.2149 5.0786C85.875 4.25268 90.7994 3.83084 93.4803 6.51149C96.6136 9.64484 96.1432 16.6928 92.1896 25.8485C88.1382 35.2295 80.7931 46.1099 71.4031 56.6684C69.717 55.4307 67.6374 54.6991 65.3904 54.6991C59.7754 54.6991 55.2072 59.2673 55.2072 64.8824C55.2072 70.4974 59.7754 75.0656 65.3904 75.0656C71.0055 75.0656 75.5737 70.4974 75.5737 64.8824C75.5737 63.1316 75.1294 61.4822 74.3477 60.0416C84.2246 49.0058 91.9807 37.539 96.2686 27.6099C101.121 16.3729 101.243 7.99054 96.6223 3.3695C94.3533 1.10032 89.8419 -1.197 81.2376 0.744381C80.0407 1.01442 79.2894 2.20368 79.5594 3.40035C79.8294 4.59702 81.0184 5.34913 82.2149 5.0786ZM65.3902 70.6226C62.225 70.6226 59.65 68.0476 59.65 64.8824C59.65 61.7172 62.225 59.1422 65.3902 59.1422C68.5554 59.1422 71.1304 61.7172 71.1304 64.8824C71.1304 68.0476 68.5554 70.6226 65.3902 70.6226ZM54.9939 78.6949C44.5302 87.3574 33.8434 93.9894 24.9017 97.3699C20.2742 99.1192 16.1787 99.9925 12.6998 99.9925C8.75508 99.9925 5.60296 98.8702 3.36217 96.6294C1.10361 94.3708 -1.18877 89.884 0.716569 81.3361C0.983647 80.1386 2.17118 79.3841 3.36834 79.6511C4.566 79.918 5.32033 81.1053 5.0535 82.3027C4.24412 85.9339 3.83882 90.822 6.50417 93.4876C9.35242 96.3361 15.3284 96.2389 23.3306 93.2136C31.826 90.0023 42.0645 83.6304 52.1604 75.2722C53.1053 74.49 54.5059 74.6218 55.2884 75.5667C56.0708 76.5119 55.939 77.9124 54.9939 78.6949ZM98.9845 40.0066C99.648 43.2782 99.9847 46.6403 99.9847 49.9993C99.9847 54.4394 99.4026 58.7472 98.3111 62.8484C98.2953 62.9232 98.2753 62.9968 98.2521 63.0691C93.2633 81.4681 78.0061 95.6897 59.041 99.1713C58.9778 99.1856 58.9142 99.1972 58.85 99.2061C55.9746 99.7222 53.0143 99.9918 49.9925 99.9918C46.3529 99.9918 42.7189 99.5981 39.1919 98.8215C37.9937 98.5577 37.2362 97.3723 37.5 96.1742C37.7637 94.9758 38.9497 94.2183 40.1474 94.4824C43.3614 95.1901 46.6737 95.5487 49.9927 95.5487C52.372 95.5487 54.7078 95.3656 56.9893 95.0123C58.4911 91.3707 59.8297 86.7011 60.8834 81.4131C61.1234 80.21 62.2931 79.429 63.4962 79.6687C64.6995 79.9083 65.4805 81.0781 65.2406 82.2814C64.37 86.6505 63.34 90.5391 62.1648 93.8979C76.4396 89.9349 87.9173 79.1797 92.8817 65.3469C89.4413 66.0425 85.9456 66.6559 82.4466 67.1777C81.2322 67.3581 80.1029 66.5216 79.9217 65.3079C79.7408 64.0945 80.5778 62.964 81.7913 62.783C86.0043 62.1548 90.2117 61.3909 94.3183 60.5089C95.1185 57.1339 95.5419 53.616 95.5419 49.9998C95.5419 46.9365 95.2353 43.8718 94.6305 40.8903C94.3867 39.6879 95.1637 38.5154 96.3661 38.2716C97.5674 38.0274 98.7406 38.804 98.9845 40.0066Z" fill="#258AFF"/>
</g>
<defs>
<clipPath id="clip0_439:65">
<rect width="100" height="100" fill="white"/>
</clipPath>
</defs>
</svg>
