<svg width="101" height="100" viewBox="0 0 101 100" fill="none" xmlns="http://www.w3.org/2000/svg">
<g clip-path="url(#clip0_439:48)">
<path d="M50.505 100C49.3556 100 48.4227 99.0667 48.4227 97.9167V72.9167C48.4227 71.7667 49.3556 70.8334 50.505 70.8334C51.6544 70.8334 52.5872 71.7667 52.5872 72.9167V97.9167C52.5872 99.0667 51.6544 100 50.505 100Z" fill="#258AFF"/>
<path d="M69.2452 100C68.8496 100 68.4498 99.8875 68.0917 99.65L49.3514 87.15C48.3936 86.5125 48.1354 85.2209 48.7725 84.2625C49.4097 83.3042 50.6965 83.0459 51.6585 83.6834L70.3988 96.1834C71.3566 96.8209 71.6148 98.1125 70.9777 99.0709C70.5779 99.675 69.9157 100 69.2452 100Z" fill="#258AFF"/>
<path d="M31.7648 100C31.0901 100 30.4321 99.675 30.0282 99.0709C29.391 98.1125 29.6492 96.8209 30.607 96.1834L49.3473 83.6834C50.3051 83.0417 51.6002 83.3042 52.2333 84.2625C52.8704 85.2209 52.6122 86.5125 51.6544 87.15L32.9142 99.65C32.5643 99.8875 32.1645 100 31.7648 100Z" fill="#258AFF"/>
<path d="M92.1499 20.8333H8.86C4.26656 20.8333 0.531006 17.0958 0.531006 12.5C0.531006 7.90413 4.26656 4.16663 8.86 4.16663H92.1499C96.7434 4.16663 100.479 7.90413 100.479 12.5C100.479 17.0958 96.7434 20.8333 92.1499 20.8333ZM8.86 8.33329C6.56536 8.33329 4.6955 10.2041 4.6955 12.5C4.6955 14.7958 6.56536 16.6666 8.86 16.6666H92.1499C94.4446 16.6666 96.3144 14.7958 96.3144 12.5C96.3144 10.2041 94.4446 8.33329 92.1499 8.33329H8.86Z" fill="#258AFF"/>
<path d="M85.9032 75H15.1067C11.6627 75 8.85999 72.1958 8.85999 68.75V18.75C8.85999 17.6 9.79283 16.6666 10.9422 16.6666H90.0677C91.2171 16.6666 92.1499 17.6 92.1499 18.75V68.75C92.1499 72.1958 89.3472 75 85.9032 75ZM13.0245 20.8333V68.75C13.0245 69.9 13.9573 70.8333 15.1067 70.8333H85.9032C87.0526 70.8333 87.9854 69.9 87.9854 68.75V44.7916V20.8333H13.0245Z" fill="#258AFF"/>
<path d="M27.6003 62.5C27.0672 62.5 26.5341 62.2959 26.126 61.8917C25.3139 61.0792 25.3139 59.7584 26.126 58.9459L42.784 42.2792C43.4878 41.575 44.5872 41.4667 45.4118 42.0167L56.3186 49.2917L71.7814 29.95C72.5019 29.0584 73.8095 28.9042 74.7091 29.625C75.6044 30.3459 75.7502 31.6542 75.0339 32.5542L58.3759 53.3875C57.7012 54.2292 56.4977 54.425 55.594 53.8209L44.5206 46.4375L29.0703 61.8959C28.6664 62.2959 28.1333 62.5 27.6003 62.5Z" fill="#258AFF"/>
</g>
<defs>
<clipPath id="clip0_439:48">
<rect width="99.9479" height="100" fill="white" transform="translate(0.531006)"/>
</clipPath>
</defs>
</svg>
