<svg width="15" height="12" viewBox="0 0 15 12" fill="none" xmlns="http://www.w3.org/2000/svg">
<path d="M14.1195 6.48362L14.1184 6.48363L1.85287 6.48364L5.90952 10.5403C5.98689 10.6177 6.03036 10.7226 6.03036 10.832C6.03036 10.9414 5.98689 11.0464 5.90952 11.1238C5.83214 11.2011 5.7272 11.2446 5.61778 11.2446C5.50836 11.2446 5.40342 11.2011 5.32605 11.1238L0.565087 6.3628C0.487714 6.28543 0.444245 6.18049 0.444246 6.07107M14.1195 6.48362L0.444246 6.07107C0.444246 6.07107 0.444245 6.07107 0.444246 6.07107M14.1195 6.48362C14.2281 6.4824 14.3318 6.4384 14.4082 6.36117C14.4846 6.28393 14.5274 6.17969 14.5274 6.07107M14.1195 6.48362L14.5274 6.07107M0.444246 6.07107C0.444246 5.96165 0.487713 5.85671 0.565087 5.77933L5.32605 1.01837C5.40342 0.940999 5.50836 0.897532 5.61778 0.897532C5.7272 0.897532 5.83214 0.940999 5.90952 1.01837C5.98689 1.09575 6.03036 1.20069 6.03036 1.31011C6.03036 1.41953 5.98689 1.52447 5.90952 1.60184L1.85287 5.6585L14.1184 5.65851L14.1195 5.65852C14.2281 5.65973 14.3318 5.70373 14.4082 5.78097C14.4846 5.8582 14.5274 5.96245 14.5274 6.07107M0.444246 6.07107L14.5274 6.07107" fill="#70747D" stroke="#70747D" stroke-width="0.2"/>
</svg>
