<svg width="43" height="42" viewBox="0 0 43 42" fill="none" xmlns="http://www.w3.org/2000/svg">
<g clip-path="url(#clip0)">
<path d="M42.8208 20.0148C42.1169 14.7218 39.3759 9.88919 35.1549 6.49928C30.934 3.10937 25.5499 1.41653 20.0969 1.76484C14.644 2.11316 9.53148 4.47649 5.79849 8.37447C2.06551 12.2725 -0.00779083 17.4126 1.06098e-05 22.7501C-0.0103173 25.607 0.582406 28.4353 1.74118 31.0584C2.89995 33.6816 4.5999 36.0433 6.73489 37.9961C8.3677 39.4726 10.5192 40.2796 12.7441 40.2501H30.2433C32.5939 40.2555 34.8523 39.3571 36.5303 37.7493C38.9217 35.4768 40.7359 32.6897 41.8281 29.6105C42.9203 26.5312 43.2603 23.2452 42.8208 20.0148ZM34.0256 35.2398C33.0175 36.2099 31.6585 36.7526 30.2433 36.7501H12.7441C11.4349 36.7763 10.165 36.3124 9.19484 35.4533C7.41621 33.826 5.99998 31.8582 5.03451 29.6725C4.06904 27.4869 3.57505 25.1304 3.58334 22.7501C3.58511 20.2865 4.11865 17.8509 5.14915 15.6024C6.17965 13.3538 7.68396 11.3427 9.56393 9.70031C12.8304 6.82314 17.0765 5.23671 21.4749 5.25006C22.1777 5.25035 22.8799 5.28891 23.5783 5.36556C26.9388 5.74677 30.12 7.05004 32.7534 9.12442C35.3867 11.1988 37.3646 13.9594 38.4578 17.0865C39.5511 20.2136 39.715 23.5792 38.9305 26.7936C38.1461 30.0079 36.4455 32.9394 34.0256 35.2486V35.2398ZM13.9876 30.2488C14.3273 30.5737 14.521 31.0171 14.5261 31.4815C14.5311 31.9459 14.3471 32.3932 14.0144 32.7251C13.6818 33.0569 13.2278 33.2461 12.7524 33.251C12.2769 33.256 11.819 33.0762 11.4792 32.7513C9.44561 30.8056 8.05121 28.3125 7.47379 25.5898C6.89636 22.8671 7.16205 20.0382 8.23699 17.4635C9.31193 14.8889 11.1474 12.6852 13.5095 11.1333C15.8716 9.58152 18.6533 8.75183 21.5 8.75006C22.1852 8.74987 22.8696 8.79723 23.5479 8.89181C23.7808 8.92461 24.0049 9.00193 24.2073 9.11934C24.4096 9.23675 24.5863 9.39195 24.7272 9.57608C24.8682 9.76021 24.9706 9.96966 25.0286 10.1925C25.0866 10.4153 25.0991 10.647 25.0654 10.8746C25.0346 11.1033 24.9572 11.3238 24.8378 11.5229C24.7185 11.722 24.5596 11.8959 24.3704 12.0341C24.1813 12.1724 23.9658 12.2723 23.7365 12.328C23.5072 12.3838 23.2689 12.3941 23.0355 12.3586C20.7932 12.0457 18.507 12.4327 16.5032 13.4642C14.4994 14.4957 12.8804 16.1191 11.8773 18.1027C10.8741 20.0862 10.538 22.3286 10.917 24.5098C11.2959 26.691 12.3706 28.6996 13.9876 30.2488ZM35.6882 20.7498C35.785 21.4124 35.8335 22.0808 35.8333 22.7501C35.8391 24.615 35.4601 26.4619 34.7188 28.1806C33.9776 29.8992 32.8893 31.4544 31.519 32.7531C31.1788 33.0779 30.7204 33.2575 30.2446 33.2523C29.7688 33.247 29.3146 33.0574 28.982 32.7251C28.6494 32.3927 28.4655 31.945 28.4709 31.4803C28.4763 31.0155 28.6705 30.5719 29.0107 30.2471C30.2212 29.0946 31.1354 27.6786 31.6785 26.115C32.2215 24.5513 32.3781 22.8844 32.1353 21.2503C32.0674 20.7906 32.1892 20.3233 32.474 19.9513C32.7587 19.5793 33.1831 19.3331 33.6538 19.2667C34.1245 19.2003 34.6028 19.3193 34.9837 19.5974C35.3645 19.8756 35.6167 20.2901 35.6846 20.7498H35.6882ZM24.9508 21.8541C25.1664 22.6114 25.1191 23.4171 24.8164 24.1455C24.5137 24.8738 23.9726 25.4837 23.2776 25.8799C22.5825 26.2762 21.7727 26.4364 20.9745 26.3356C20.1764 26.2349 19.4349 25.8788 18.8659 25.323C18.2968 24.7671 17.9322 24.0429 17.8291 23.2633C17.7259 22.4837 17.89 21.6927 18.2956 21.0139C18.7013 20.335 19.3257 19.8064 20.0714 19.5108C20.8171 19.2151 21.642 19.169 22.4173 19.3796L29.1916 12.7628C29.3569 12.5957 29.5546 12.4623 29.7732 12.3706C29.9918 12.2789 30.2269 12.2306 30.4648 12.2286C30.7027 12.2266 30.9386 12.2709 31.1588 12.3589C31.379 12.4469 31.579 12.5768 31.7473 12.7411C31.9155 12.9054 32.0485 13.1008 32.1386 13.3159C32.2287 13.531 32.274 13.7614 32.272 13.9938C32.2699 14.2261 32.2205 14.4558 32.1266 14.6693C32.0327 14.8828 31.8962 15.0759 31.7251 15.2373L24.9508 21.8541Z" fill="#258AFF"/>
</g>
<defs>
<clipPath id="clip0">
<rect width="43" height="42" fill="white"/>
</clipPath>
</defs>
</svg>
