<svg width="43" height="43" viewBox="0 0 43 43" fill="none" xmlns="http://www.w3.org/2000/svg">
<g clip-path="url(#clip0)">
<path d="M30.6644 14.4229C30.1507 14.5594 29.689 14.8451 29.3377 15.244C28.9864 15.6428 28.7613 16.1369 28.6908 16.6637C28.6202 17.1905 28.7075 17.7264 28.9415 18.2036C29.1755 18.6808 29.5458 19.0779 30.0055 19.3447C30.4652 19.6115 30.9936 19.736 31.5241 19.7024C32.0545 19.6689 32.5631 19.4788 32.9855 19.1563C33.408 18.8337 33.7252 18.3931 33.8973 17.8902C34.0693 17.3874 34.0884 16.8448 33.9521 16.331C33.8616 15.9898 33.7047 15.6698 33.4905 15.3893C33.2762 15.1087 33.0088 14.8731 32.7035 14.6959C32.3982 14.5187 32.061 14.4034 31.7111 14.3566C31.3612 14.3097 31.0056 14.3323 30.6644 14.4229Z" fill="#258AFF"/>
<path d="M21.7061 9.0479C21.1924 9.18438 20.7307 9.47011 20.3794 9.86896C20.0281 10.2678 19.803 10.7619 19.7324 11.2887C19.6619 11.8155 19.7492 12.3514 19.9832 12.8286C20.2172 13.3058 20.5875 13.7029 21.0472 13.9697C21.5068 14.2365 22.0353 14.361 22.5658 14.3274C23.0962 14.2939 23.6048 14.1038 24.0272 13.7813C24.4496 13.4587 24.7669 13.0181 24.939 12.5152C25.111 12.0124 25.1301 11.4698 24.9938 10.956C24.9033 10.6148 24.7464 10.2948 24.5322 10.0143C24.3179 9.7337 24.0505 9.4981 23.7452 9.3209C23.4399 9.14371 23.1027 9.0284 22.7528 8.98156C22.4029 8.93471 22.0472 8.95726 21.7061 9.0479Z" fill="#258AFF"/>
<path d="M12.7477 14.4229C12.234 14.5594 11.7724 14.8451 11.4211 15.244C11.0698 15.6428 10.8446 16.1369 10.7741 16.6637C10.7035 17.1905 10.7908 17.7264 11.0248 18.2036C11.2588 18.6808 11.6291 19.0779 12.0888 19.3447C12.5485 19.6115 13.0769 19.736 13.6074 19.7024C14.1378 19.6689 14.6464 19.4788 15.0688 19.1563C15.4913 18.8337 15.8086 18.3931 15.9806 17.8902C16.1527 17.3874 16.1717 16.8448 16.0354 16.331C15.9449 15.9898 15.788 15.6698 15.5738 15.3893C15.3595 15.1087 15.0921 14.8731 14.7868 14.6959C14.4815 14.5187 14.1443 14.4034 13.7944 14.3566C13.4446 14.3097 13.0889 14.3323 12.7477 14.4229Z" fill="#258AFF"/>
<path d="M12.7477 25.1729C12.234 25.3094 11.7724 25.5951 11.4211 25.994C11.0698 26.3928 10.8446 26.8869 10.7741 27.4137C10.7035 27.9405 10.7908 28.4764 11.0248 28.9536C11.2588 29.4308 11.6291 29.8279 12.0888 30.0947C12.5485 30.3615 13.0769 30.486 13.6074 30.4524C14.1378 30.4189 14.6464 30.2288 15.0688 29.9063C15.4913 29.5837 15.8086 29.1431 15.9806 28.6402C16.1527 28.1374 16.1717 27.5948 16.0354 27.081C15.9449 26.7398 15.788 26.4198 15.5738 26.1393C15.3595 25.8587 15.0921 25.6231 14.7868 25.4459C14.4815 25.2687 14.1443 25.1534 13.7944 25.1066C13.4446 25.0597 13.0889 25.0823 12.7477 25.1729Z" fill="#258AFF"/>
<path d="M22.3959 0.0125511C19.5113 -0.0877495 16.636 0.3938 13.9415 1.42849C11.247 2.46318 8.78837 4.02983 6.71227 6.03503C4.63618 8.04023 2.98509 10.4429 1.85744 13.0999C0.729799 15.7569 0.148683 18.6137 0.148743 21.5C0.155381 27.2001 2.42269 32.6649 6.45328 36.6955C10.4839 40.7261 15.9486 42.9934 21.6487 43C22.2543 43 22.8492 42.9606 23.4404 42.9104C23.889 42.8726 24.307 42.6673 24.6111 42.3353C24.9152 42.0033 25.0832 41.569 25.0816 41.1188L25.0242 34.6903C25.0097 33.4199 25.3742 32.1741 26.071 31.1118C26.7678 30.0496 27.7655 29.2191 28.9365 28.7265C30.1075 28.2338 31.3988 28.1014 32.6454 28.346C33.8921 28.5907 35.0375 29.2013 35.9355 30.1L36.1147 30.2792C36.5214 30.6894 37.0253 30.9901 37.5794 31.1533C38.1336 31.3165 38.72 31.3369 39.2841 31.2126C39.8392 31.0961 40.356 30.8419 40.7871 30.4734C41.2182 30.105 41.5498 29.634 41.7512 29.1038C42.7404 26.5065 43.2133 23.741 43.1434 20.9625C42.9417 15.5051 40.6971 10.3227 36.8543 6.44236C33.0115 2.56206 27.851 0.267169 22.3959 0.0125511ZM38.4886 27.6042L38.4635 27.5791C37.0631 26.181 35.2784 25.2311 33.3365 24.8501C31.3945 24.4692 29.3832 24.6746 27.5584 25.4401C25.7335 26.2055 24.1776 27.4966 23.0886 29.1489C21.9995 30.8012 21.4266 32.7401 21.4427 34.7189L21.4857 39.4167C16.7339 39.3953 12.1852 37.4871 8.84032 34.112C5.49541 30.7368 3.62828 26.1712 3.64966 21.4194C3.67104 16.6676 5.57919 12.1189 8.95434 8.774C12.3295 5.4291 16.8952 3.56196 21.6469 3.58334C21.8566 3.58334 22.068 3.58334 22.2794 3.59409C26.8238 3.80754 31.1221 5.72034 34.3227 8.95344C37.5233 12.1865 39.3925 16.504 39.56 21.0503C39.6192 23.2784 39.2575 25.4976 38.494 27.5917L38.4886 27.6042Z" fill="#258AFF"/>
</g>
<defs>
<clipPath id="clip0">
<rect width="43" height="43" fill="white"/>
</clipPath>
</defs>
</svg>
