<svg width="42" height="43" viewBox="0 0 42 43" fill="none" xmlns="http://www.w3.org/2000/svg">
<g clip-path="url(#clip0)">
<path d="M21 0C16.8466 0 12.7865 1.26095 9.33303 3.6234C5.8796 5.98585 3.18798 9.34369 1.59854 13.2723C0.00909901 17.2009 -0.406771 21.5238 0.403519 25.6944C1.21381 29.865 3.21386 33.696 6.15077 36.7028C9.08767 39.7096 12.8295 41.7573 16.9031 42.5869C20.9767 43.4165 25.1991 42.9907 29.0364 41.3634C32.8736 39.7361 36.1534 36.9804 38.4609 33.4448C40.7684 29.9091 42 25.7523 42 21.5C41.994 15.7997 39.7796 10.3347 35.8426 6.30401C31.9056 2.27332 26.5677 0.00616527 21 0V0ZM36.1323 12.5417H30.4955C29.2337 9.54776 27.5723 6.74757 25.5588 4.22117C30.0151 5.46266 33.8141 8.45213 36.1323 12.5417ZM28.875 21.5C28.8606 23.3242 28.5799 25.1359 28.042 26.875H13.958C13.4201 25.1359 13.1394 23.3242 13.125 21.5C13.1394 19.6758 13.4201 17.8641 13.958 16.125H28.042C28.5799 17.8641 28.8606 19.6758 28.875 21.5ZM15.3615 30.4583H26.6385C25.1532 33.4607 23.2543 36.229 21 38.6785C18.7449 36.2297 16.8459 33.4612 15.3615 30.4583ZM15.3615 12.5417C16.8468 9.53932 18.7457 6.77099 21 4.3215C23.2551 6.7703 25.1541 9.53876 26.6385 12.5417H15.3615ZM16.45 4.22117C14.4334 6.74703 12.769 9.54725 11.5045 12.5417H5.86776C8.18801 8.45027 11.9904 5.46056 16.45 4.22117ZM4.30676 16.125H10.325C9.87134 17.8793 9.63614 19.6853 9.62501 21.5C9.63614 23.3147 9.87134 25.1207 10.325 26.875H4.30676C3.23111 23.3763 3.23111 19.6237 4.30676 16.125ZM5.86776 30.4583H11.5045C12.769 33.4527 14.4334 36.253 16.45 38.7788C11.9904 37.5394 8.18801 34.5497 5.86776 30.4583ZM25.5588 38.7788C27.5723 36.2524 29.2337 33.4522 30.4955 30.4583H36.1323C33.8141 34.5479 30.0151 37.5373 25.5588 38.7788ZM37.6933 26.875H31.675C32.1287 25.1207 32.3639 23.3147 32.375 21.5C32.3639 19.6853 32.1287 17.8793 31.675 16.125H37.6898C38.7654 19.6237 38.7654 23.3763 37.6898 26.875H37.6933Z" fill="#258AFF"/>
</g>
<defs>
<clipPath id="clip0">
<rect width="42" height="43" fill="white"/>
</clipPath>
</defs>
</svg>
