<svg width="42" height="42" viewBox="0 0 42 42" fill="none" xmlns="http://www.w3.org/2000/svg">
<g clip-path="url(#clip0)">
<path d="M21 28C21.8148 28.0016 22.6189 27.8134 23.3485 27.4505L26.8485 25.7005C27.7229 25.2663 28.4583 24.5958 28.9711 23.765C29.4839 22.9342 29.7537 21.9763 29.75 21V15.8077C29.753 14.8323 29.4828 13.8754 28.97 13.0456C28.4572 12.2158 27.7223 11.5461 26.8485 11.1125L23.3485 9.36249C22.619 8.99991 21.8155 8.81123 21.0008 8.81123C20.1862 8.81123 19.3827 8.99991 18.6532 9.36249L15.1532 11.1125C14.2791 11.5459 13.5438 12.2154 13.0307 13.0453C12.5176 13.8751 12.2471 14.8321 12.25 15.8077V21C12.2469 21.9757 12.517 22.9328 13.0298 23.763C13.5426 24.5931 14.2775 25.263 15.1515 25.697L18.6515 27.447C19.3808 27.8111 20.1848 28.0005 21 28ZM15.75 21V15.8077C15.7528 15.6292 15.7829 15.4522 15.8392 15.2827L19.6542 17.1902C20.0721 17.3991 20.5328 17.5078 21 17.5078C21.4671 17.5078 21.9279 17.3991 22.3457 17.1902L26.1607 15.2827C26.2171 15.4522 26.2472 15.6292 26.25 15.8077V21C26.2513 21.3255 26.1614 21.6448 25.9903 21.9216C25.8192 22.1985 25.5739 22.4218 25.2822 22.5662L21.7822 24.3162C21.5387 24.4367 21.2708 24.4994 20.9991 24.4994C20.7274 24.4994 20.4594 24.4367 20.216 24.3162L16.716 22.5662C16.4246 22.4216 16.1797 22.1982 16.0089 21.9213C15.8382 21.6445 15.7484 21.3253 15.75 21ZM33.25 38.5H28.5092L34.6115 32.8615C37.3058 30.1673 39.1399 26.7341 39.8816 22.9967C40.6234 19.2593 40.2392 15.3858 38.778 11.8669C37.3167 8.34799 34.844 5.34187 31.673 3.22927C28.502 1.11667 24.7754 -0.0073734 20.9652 -0.000502748C17.1549 0.0063679 13.4324 1.14384 10.269 3.26787C7.10571 5.39189 4.64386 8.40691 3.19529 11.9311C1.74671 15.4553 1.37658 19.3301 2.13176 23.0647C2.88694 26.7994 4.73346 30.226 7.43747 32.9105L13.4907 38.5H8.74997C8.28585 38.5 7.84073 38.6844 7.51254 39.0126C7.18435 39.3407 6.99997 39.7859 6.99997 40.25C6.99997 40.7141 7.18435 41.1592 7.51254 41.4874C7.84073 41.8156 8.28585 42 8.74997 42H33.25C33.7141 42 34.1592 41.8156 34.4874 41.4874C34.8156 41.1592 35 40.7141 35 40.25C35 39.7859 34.8156 39.3407 34.4874 39.0126C34.1592 38.6844 33.7141 38.5 33.25 38.5ZM9.86298 8.11299C12.8102 5.15254 16.8127 3.48413 20.9901 3.47477C25.1674 3.46542 29.1774 5.11589 32.1378 8.06311C35.0983 11.0103 36.7667 15.0129 36.7761 19.1902C36.7854 23.3676 35.1349 27.3775 32.1877 30.338L25.214 36.7797C24.0678 37.8601 22.5507 38.4593 20.9757 38.4537C19.4006 38.4482 17.8878 37.8383 16.7492 36.75L9.86298 30.387C6.91352 27.431 5.25707 23.4258 5.25707 19.25C5.25707 15.0742 6.91352 11.069 9.86298 8.11299Z" fill="#258AFF"/>
</g>
<defs>
<clipPath id="clip0">
<rect width="42" height="42" fill="white"/>
</clipPath>
</defs>
</svg>
