<svg width="43" height="42" viewBox="0 0 43 42" fill="none" xmlns="http://www.w3.org/2000/svg">
<g clip-path="url(#clip0)">
<path d="M30.4583 0C29.9832 0 29.5274 0.184375 29.1914 0.512563C28.8554 0.840752 28.6667 1.28587 28.6667 1.75C28.6667 6.91075 24.0388 8.75 19.7083 8.75H7.16667C5.26595 8.75 3.44308 9.4875 2.09907 10.8003C0.755058 12.113 0 13.8935 0 15.75L0 19.25C0.00391329 20.2978 0.249869 21.3312 0.719538 22.2732C1.18921 23.2153 1.87048 24.0416 2.71258 24.6908L9.11242 38.6418C9.56757 39.6412 10.3096 40.4903 11.2486 41.0863C12.1876 41.6823 13.2833 41.9997 14.4032 42C15.2942 41.9994 16.1709 41.7812 16.9536 41.3652C17.7362 40.9492 18.3999 40.3487 18.8843 39.6182C19.3686 38.8877 19.6582 38.0505 19.7267 37.1828C19.7952 36.3151 19.6405 35.4444 19.2765 34.65L15.3349 26.25H19.7083C24.0388 26.25 28.6667 28.0893 28.6667 33.25C28.6667 33.7141 28.8554 34.1592 29.1914 34.4874C29.5274 34.8156 29.9832 35 30.4583 35C30.9335 35 31.3892 34.8156 31.7252 34.4874C32.0612 34.1592 32.25 33.7141 32.25 33.25V1.75C32.25 1.28587 32.0612 0.840752 31.7252 0.512563C31.3892 0.184375 30.9335 0 30.4583 0ZM16.0121 36.0832C16.1308 36.345 16.1807 36.6316 16.1573 36.917C16.1339 37.2023 16.038 37.4775 15.8782 37.7175C15.7185 37.9575 15.4999 38.1548 15.2423 38.2914C14.9847 38.4281 14.6963 38.4998 14.4032 38.5C13.9757 38.4997 13.5575 38.3782 13.1994 38.1501C12.8412 37.9221 12.5586 37.5974 12.3858 37.2155L7.35479 26.25H11.3932L16.0121 36.0832ZM28.6667 25.55C26.1069 23.6236 22.9376 22.633 19.7083 22.75H7.16667C6.21631 22.75 5.30487 22.3813 4.63287 21.7249C3.96086 21.0685 3.58333 20.1783 3.58333 19.25V15.75C3.58333 14.8217 3.96086 13.9315 4.63287 13.2751C5.30487 12.6187 6.21631 12.25 7.16667 12.25H19.7083C22.9365 12.3695 26.1057 11.3821 28.6667 9.45875V25.55ZM42.8208 27.041C42.7157 27.2467 42.5702 27.4303 42.3924 27.581C42.2147 27.7318 42.0083 27.8469 41.785 27.9197C41.5617 27.9925 41.3259 28.0216 41.091 28.0054C40.8562 27.9891 40.627 27.9278 40.4164 27.825L36.8331 26.075C36.4078 25.8675 36.0843 25.5036 35.9338 25.0631C35.7832 24.6227 35.818 24.1419 36.0304 23.7265C36.2428 23.3111 36.6155 22.9951 37.0664 22.8481C37.5173 22.7011 38.0095 22.735 38.4348 22.9425L42.0182 24.6925C42.4413 24.8998 42.7632 25.2623 42.9136 25.7007C43.064 26.1391 43.0306 26.6178 42.8208 27.0322V27.041ZM36.0304 11.291C35.9251 11.0853 35.8624 10.8614 35.8458 10.6321C35.8291 10.4027 35.8589 10.1724 35.9335 9.95428C36.008 9.73618 36.1258 9.53456 36.2802 9.36095C36.4346 9.18735 36.6224 9.04515 36.8331 8.9425L40.4164 7.1925C40.8417 6.98503 41.3339 6.95108 41.7849 7.09811C42.2358 7.24514 42.6084 7.5611 42.8208 7.9765C43.0332 8.3919 43.068 8.87269 42.9175 9.31312C42.7669 9.75355 42.4435 10.1175 42.0182 10.325L38.4348 12.075C38.2243 12.1778 37.995 12.2391 37.7602 12.2554C37.5254 12.2716 37.2896 12.2425 37.0663 12.1697C36.843 12.0969 36.6366 11.9818 36.4588 11.831C36.2811 11.6803 36.1355 11.4967 36.0304 11.291ZM35.8333 17.5C35.8333 17.0359 36.0221 16.5908 36.3581 16.2626C36.6941 15.9344 37.1498 15.75 37.625 15.75H41.2083C41.6835 15.75 42.1392 15.9344 42.4752 16.2626C42.8112 16.5908 43 17.0359 43 17.5C43 17.9641 42.8112 18.4092 42.4752 18.7374C42.1392 19.0656 41.6835 19.25 41.2083 19.25H37.625C37.1498 19.25 36.6941 19.0656 36.3581 18.7374C36.0221 18.4092 35.8333 17.9641 35.8333 17.5Z" fill="#258AFF"/>
</g>
<defs>
<clipPath id="clip0">
<rect width="43" height="42" fill="white"/>
</clipPath>
</defs>
</svg>
