<svg width="43" height="42" viewBox="0 0 43 42" fill="none" xmlns="http://www.w3.org/2000/svg">
<path d="M28.6667 0H14.3333C11.9583 0.00277875 9.68137 0.925543 8.00198 2.56588C6.32258 4.20623 5.37784 6.43021 5.375 8.75V33.25C5.37784 35.5698 6.32258 37.7938 8.00198 39.4341C9.68137 41.0745 11.9583 41.9972 14.3333 42H28.6667C31.0417 41.9972 33.3186 41.0745 34.998 39.4341C36.6774 37.7938 37.6222 35.5698 37.625 33.25V8.75C37.6222 6.43021 36.6774 4.20623 34.998 2.56588C33.3186 0.925543 31.0417 0.00277875 28.6667 0V0ZM34.0417 33.25C34.0417 34.6424 33.4754 35.9777 32.4674 36.9623C31.4594 37.9469 30.0922 38.5 28.6667 38.5H23.2917V36.75C23.2917 36.2859 23.1029 35.8408 22.7669 35.5126C22.4309 35.1844 21.9752 35 21.5 35C21.0248 35 20.5691 35.1844 20.2331 35.5126C19.8971 35.8408 19.7083 36.2859 19.7083 36.75V38.5H14.3333C12.9078 38.5 11.5406 37.9469 10.5326 36.9623C9.52463 35.9777 8.95833 34.6424 8.95833 33.25V8.75C8.95833 7.35761 9.52463 6.02226 10.5326 5.03769C11.5406 4.05312 12.9078 3.5 14.3333 3.5H28.6667C30.0922 3.5 31.4594 4.05312 32.4674 5.03769C33.4754 6.02226 34.0417 7.35761 34.0417 8.75V33.25ZM28.6667 28C28.6667 28.4641 28.4779 28.9093 28.1419 29.2374C27.8059 29.5656 27.3502 29.75 26.875 29.75H16.125C15.6498 29.75 15.1941 29.5656 14.8581 29.2374C14.5221 28.9093 14.3333 28.4641 14.3333 28C14.3333 27.5359 14.5221 27.0908 14.8581 26.7626C15.1941 26.4344 15.6498 26.25 16.125 26.25H26.875C27.3502 26.25 27.8059 26.4344 28.1419 26.7626C28.4779 27.0908 28.6667 27.5359 28.6667 28ZM17.9167 22.75C18.3918 22.75 18.8476 22.5656 19.1836 22.2374C19.5196 21.9092 19.7083 21.4641 19.7083 21V19.25H23.2917V21C23.2917 21.4641 23.4804 21.9092 23.8164 22.2374C24.1524 22.5656 24.6082 22.75 25.0833 22.75C25.5585 22.75 26.0142 22.5656 26.3502 22.2374C26.6862 21.9092 26.875 21.4641 26.875 21V14C26.875 12.6076 26.3087 11.2723 25.3007 10.2877C24.2927 9.30312 22.9255 8.75 21.5 8.75C20.0745 8.75 18.7073 9.30312 17.6993 10.2877C16.6913 11.2723 16.125 12.6076 16.125 14V21C16.125 21.4641 16.3138 21.9092 16.6498 22.2374C16.9858 22.5656 17.4415 22.75 17.9167 22.75ZM21.5 12.25C21.9752 12.25 22.4309 12.4344 22.7669 12.7626C23.1029 13.0908 23.2917 13.5359 23.2917 14V15.75H19.7083V14C19.7083 13.5359 19.8971 13.0908 20.2331 12.7626C20.5691 12.4344 21.0248 12.25 21.5 12.25Z" fill="#258AFF"/>
</svg>
