<svg width="25" height="29" viewBox="0 0 25 29" fill="none" xmlns="http://www.w3.org/2000/svg">
<path d="M23.0733 11.4831L6.54441 1.28911C5.34857 0.552524 3.90278 0.521899 2.67683 1.20719C1.45088 1.89237 0.718994 3.14039 0.718994 4.54537V24.8406C0.718994 26.965 2.42983 28.7026 4.53257 28.7141C4.53831 28.7141 4.54404 28.7141 4.54967 28.7141C5.20679 28.7141 5.89156 28.508 6.53112 28.1175C7.04563 27.8035 7.20824 27.1316 6.89433 26.6168C6.58043 26.102 5.90877 25.9394 5.39443 26.2534C5.09528 26.436 4.80313 26.5304 4.54432 26.5304C3.75094 26.5261 2.90148 25.8461 2.90148 24.8406V4.54543C2.90148 3.94272 3.21544 3.40749 3.74126 3.11354C4.26714 2.8196 4.88725 2.83272 5.39957 3.14832L21.9286 13.3424C22.4254 13.6484 22.7096 14.1587 22.7084 14.7424C22.7072 15.3261 22.4209 15.8352 21.9213 16.1402L9.97083 23.4612C9.45681 23.776 9.29524 24.4482 9.60997 24.9624C9.92464 25.4767 10.5965 25.6384 11.1105 25.3235L23.0596 18.0034C24.2036 17.3051 24.8883 16.0878 24.891 14.7468C24.8938 13.406 24.214 12.1858 23.0733 11.4831Z" fill="#258AFF"/>
</svg>
