<svg width="43" height="49" viewBox="0 0 43 49" fill="none" xmlns="http://www.w3.org/2000/svg">
<path d="M39.6287 18.8458L10.703 1.00625C8.61031 -0.282777 6.08017 -0.336371 3.93476 0.862886C1.78935 2.06195 0.508545 4.246 0.508545 6.70471V42.2213C0.508545 45.939 3.5025 48.9798 7.1823 48.9999C7.19234 48.9999 7.20238 49 7.21224 49C8.36218 48.9999 9.56053 48.6393 10.6798 47.956C11.5802 47.4063 11.8647 46.2305 11.3154 45.3298C10.7661 44.4288 9.59066 44.1442 8.69056 44.6938C8.16705 45.0133 7.65578 45.1786 7.20286 45.1785C5.81445 45.1709 4.3279 43.9809 4.3279 42.2214V6.7048C4.3279 5.65006 4.87733 4.71341 5.79752 4.19901C6.7178 3.6846 7.80299 3.70757 8.69955 4.25987L37.6253 22.0994C38.4947 22.635 38.9922 23.528 38.9901 24.5495C38.988 25.571 38.4868 26.462 37.6127 26.9957L16.6993 39.8073C15.7997 40.3584 15.517 41.5347 16.0677 42.4346C16.6184 43.3346 17.7941 43.6175 18.6936 43.0664L39.6046 30.2563C41.6067 29.0343 42.8048 26.9039 42.8096 24.5572C42.8144 22.2107 41.6249 20.0754 39.6287 18.8458Z" fill="white"/>
</svg>
